<?xml version="1.0" encoding="UTF-8"?>
<svg width="1200pt" height="1200pt" version="1.1" viewBox="0 0 1200 1200" xmlns="http://www.w3.org/2000/svg">
 <path d="m237.84 283.45c-70.078 80.062-109.08 177.94-117.14 277.92-0.46875 6.7031 4.7812 12.609 11.531 12.938 43.922 1.7812 86.156 1.7812 119.77 1.6875 97.078-0.70312 185.86 31.547 252.84 91.312l67.453-67.453-317.06-317.06c-4.9219-4.9219-12.938-4.6875-17.531 0.46875z" fill="#f85103"/>
 <path d="m504.94 722.63-221.86 221.86c-4.9219 4.9219-4.6875 12.938 0.46875 17.531 83.391 72.938 186.24 112.22 290.53 117.84 7.0781 0.375 12.844-5.5312 12.609-12.609-1.7812-44.062-1.7812-86.156-1.6875-119.77 0.70312-86.297-27.609-165.37-80.062-225z" fill="#f85103"/>
 <path d="m282.94 255.47 317.06 317.06 67.453-67.453c-59.859-67.078-92.297-156.14-91.453-252.84 0.23438-33.609 0.14062-75.844-1.6875-119.77-0.23438-6.7031-6.1406-12.141-12.938-11.531-99.938 8.0625-197.86 47.062-277.92 117.14-5.1562 4.5469-5.3906 12.703-0.46875 17.531z" fill="#f85103"/>
 <path d="m625.92 120c-7.0781-0.375-12.844 5.5312-12.609 12.609 1.7812 44.062 1.7812 86.156 1.6875 119.77-0.70312 86.297 27.609 165.24 80.062 224.86l221.86-221.86c4.9219-4.9219 4.6875-12.938-0.46875-17.531-83.391-72.938-186.24-112.31-290.53-117.84z" fill="#f85103"/>
 <path d="m625.55 1067.6c0.23438 6.7031 6.1406 12.141 12.938 11.531 99.938-7.9219 197.86-47.062 277.92-117.14 5.1562-4.5469 5.3906-12.703 0.46875-17.531l-317.06-317.06-67.453 67.453c59.766 66.938 92.156 156 91.312 252.94-0.23438 33.609 0 75.844 1.6875 119.77z" fill="#f85103"/>
 <path d="m962.16 916.55c70.078-80.062 109.08-177.94 117.14-277.92 0.46875-6.7031-4.7812-12.609-11.531-12.938-43.922-1.7812-86.297-1.9219-119.86-1.6875-96.375 1.0781-185.63-31.547-252.71-91.453l-67.453 67.453 317.06 317.06c4.9219 4.9219 12.938 4.6875 17.531-0.46875z" fill="#f85103"/>
 <path d="m962.16 283.45c-4.5469-5.1562-12.703-5.3906-17.531-0.46875l-221.86 221.86c59.625 52.453 138.84 80.531 224.86 80.062 33.609-0.23438 75.703-0.14062 119.86 1.6875 7.0781 0.23438 12.938-5.5312 12.609-12.609-5.625-104.3-44.859-207.14-117.84-290.53z" fill="#f85103"/>
 <path d="m237.84 916.55c4.5469 5.1562 12.703 5.3906 17.531 0.46875l221.86-221.86c-58.922-51.703-136.78-80.062-221.86-80.062h-3.1406c-33.609 0.14062-75.703 0-119.77-1.6875-7.0781-0.23438-12.938 5.5312-12.609 12.609 5.625 104.3 44.859 207.14 117.84 290.53z" fill="#f85103"/>
</svg>
