<?xml version="1.0" encoding="utf-8"?>
<!-- Generator: Adobe Illustrator 19.0.0, SVG Export Plug-In . SVG Version: 6.00 Build 0)  -->
<svg version="1.1" id="Layer_1" xmlns="http://www.w3.org/2000/svg" xmlns:xlink="http://www.w3.org/1999/xlink" x="0px" y="0px"
	 viewBox="380 -189.5 2040.5 1178.5" style="enable-background:new 380 -189.5 2040.5 1178.5;" xml:space="preserve">
<style type="text/css">
	.st0{fill:#FDFCEC;}
	.st1{fill:#E5EDF0;}
	.st2{fill:none;stroke:#CBC9BC;stroke-linejoin:round;}
	.st3{fill:#939598;}
	.st4{font-family:'HelveticaNeue-Bold';}
	.st5{font-size:5.1197px;}
	.st6{fill:#A8AAAD;}
	.st7{display:none;}
	.st8{display:inline;fill:#FFFFFF;stroke:#000000;stroke-miterlimit:10;}
	.st9{display:inline;fill:none;stroke:#EC2227;stroke-width:3;stroke-miterlimit:10;}
	.st10{display:inline;fill:#405B54;}
</style>
<g>
	<path class="st0" d="M803-243.5"/>
	<polygon class="st0" points="794.5,-232.7 792.8,-235.6 795,-236 	"/>
	<polygon class="st0" points="777.8,-231.7 776.2,-232.7 776.5,-234.8 778.7,-235.3 778.9,-232.4 	"/>
	<polygon class="st0" points="919.6,-230.3 919.1,-230.4 920.5,-233 921,-230.9 	"/>
	<polygon class="st0" points="784.3,-228.4 783.8,-230.6 786.3,-231.9 786.2,-230.1 	"/>
	<polygon class="st0" points="791,-227.3 788.8,-227.2 789.6,-229.7 791,-229.2 	"/>
	<polygon class="st0" points="798.3,-226 797.2,-228.5 799.1,-229.4 799.2,-226.5 	"/>
	<polygon class="st0" points="730,-227.9 730.7,-225.9 729.5,-225.3 	"/>
	<polygon class="st0" points="712,-223.6 709.8,-224.5 710.7,-225.9 712.1,-225.4 	"/>
	<polygon class="st0" points="806.1,-217.3 805,-219.3 806.6,-221.2 807,-218.9 	"/>
	<polygon class="st0" points="736.1,-215.4 731.6,-215.3 731.5,-215.9 735.3,-218.5 737.3,-218 	"/>
	<polygon class="st0" points="809.5,-214.8 809,-214.7 809.3,-217.4 810.9,-217.3 810.9,-215.2 	"/>
	<polygon class="st0" points="743.6,-204.4 740.6,-204.8 740.4,-205.9 746.7,-207 747.6,-205.4 	"/>
	<polygon class="st0" points="903.8,-201.2 901.5,-203.2 903.6,-204 904.8,-202.7 	"/>
	<polygon class="st0" points="763.2,-200.6 765.1,-205.9 767.5,-206 767.5,-204.3 	"/>
	<polygon class="st0" points="908.8,-200.2 907.7,-201.8 909.8,-202.6 909.8,-200.7 	"/>
	<polygon class="st0" points="896.7,-196.9 896.6,-198.4 898.4,-200.1 898.8,-198.1 	"/>
	<polygon class="st0" points="900.9,-193.8 898.2,-194.4 898.9,-195.6 901.4,-196 	"/>
	<polygon class="st0" points="811.4,-193 810.6,-194.3 812.8,-198 815.7,-198.8 816.2,-195.2 	"/>
	<polygon class="st0" points="938.6,-192.1 937.1,-194.5 937.2,-196.5 938.8,-197.1 940.2,-195.8 	"/>
	<polygon class="st0" points="898.5,-172.2 896.6,-173.3 897.6,-174.5 899.4,-173 	"/>
	<polygon class="st0" points="845.9,-166.7 843.7,-168 843.5,-168.9 847.5,-170.2 847.4,-168.4 	"/>
	<polygon class="st0" points="759.8,-147 756.4,-147.8 758.2,-149.7 761.4,-151.1 763.3,-149.6 	"/>
	<polygon class="st0" points="824.9,-145 822.8,-145 824.3,-147.7 	"/>
	<polygon class="st0" points="847,-143.9 845.3,-145.7 847.2,-146.5 848.2,-145.2 	"/>
	<polygon class="st0" points="856.1,-138.4 854.1,-139.8 856.5,-142.8 857.5,-141.2 857.2,-139.1 	"/>
	<polygon class="st0" points="775.2,-100.2 772.8,-100.7 772.7,-101.3 774.9,-102.4 	"/>
	<polygon class="st0" points="818.2,-99.1 817.8,-100.4 819.4,-102.8 827,-105.5 826.9,-103.2 821.5,-100 	"/>
	<polygon class="st0" points="836.8,-97.7 840.4,-99.1 841.4,-96.5 839.8,-95.1 835.9,-95.6 	"/>
	<polygon class="st0" points="824.5,-87.9 822.5,-88.4 822.2,-90.2 824.2,-90.6 	"/>
	<polygon class="st0" points="804.3,-85.5 802.5,-87 803,-91.5 808.6,-96 813.2,-98.1 814.8,-97.6 815,-95.3 814.2,-94.5 
		810.7,-94.6 805.6,-90 806.1,-86 	"/>
	<polygon class="st0" points="844.9,-77.7 838.9,-79.6 837.8,-82 844.1,-82.5 	"/>
	<polygon class="st0" points="797.5,-77.3 797.2,-79.4 799.6,-80.3 801.5,-83.1 803.5,-81.9 803.5,-78.7 	"/>
	<polygon class="st0" points="771.3,-76.3 768.7,-76.6 771.1,-78.3 	"/>
	<polygon class="st0" points="836.5,-72.2 829.9,-74.6 830.1,-76.4 833.8,-76.2 836.6,-73.6 	"/>
	<polygon class="st0" points="860.5,-71.1 856.4,-73 856.3,-74.4 858.5,-74.8 	"/>
	<polygon class="st0" points="823.7,-65.2 823.2,-67.2 826.2,-70.3 828.5,-68.5 826.4,-68.3 	"/>
	<polygon class="st0" points="791.8,-65 789.9,-66.2 790.3,-67.8 792.8,-68.1 793.1,-65.5 	"/>
	<polygon class="st0" points="816.6,-60.4 814.7,-60.6 814.5,-63.5 816.4,-66.4 818.4,-65.4 817.8,-61.9 	"/>
	<polygon class="st0" points="894.4,-57.1 895.7,-59.7 896.5,-59.9 896.4,-57.7 	"/>
	<polygon class="st0" points="769.3,-56.1 770.2,-59.1 771.7,-58.5 771.9,-56.7 	"/>
	<polygon class="st0" points="841.3,-46.9 837.2,-46.5 836.6,-48.9 839.5,-50.1 842,-48.3 	"/>
	<polygon class="st0" points="731.9,-45 731.1,-46.7 734.3,-47.7 734,-46.4 	"/>
	<polygon class="st0" points="660.5,-42.8 659.7,-45.4 661.9,-46.2 661.7,-43.8 	"/>
	<polygon class="st0" points="781.9,-39.7 778.9,-40.9 782.2,-44.9 782.9,-42.9 	"/>
	<polygon class="st0" points="855.2,-41.1 846.3,-40.9 843.5,-39.6 841.5,-42.4 843.8,-43.9 849.4,-45.1 853.3,-48.3 	"/>
	<polygon class="st0" points="657.6,-38.7 655.3,-41.4 657.9,-41.6 	"/>
	<polygon class="st0" points="873,-38.4 871.8,-42 872.8,-42.1 875.6,-39.9 	"/>
	<polygon class="st0" points="853.7,-35.7 849.4,-35.1 847.3,-36.1 847,-37.8 849.3,-38.3 853.9,-36.6 	"/>
	<polygon class="st0" points="760.9,-34 759.1,-34.6 759.2,-37.2 761.7,-34.5 	"/>
	<polygon class="st0" points="841.3,-32.2 835.8,-31.3 837.8,-34.7 841.9,-35.8 842.5,-35.6 	"/>
	<polygon class="st0" points="717.1,-7.7 720,-11.4 719.7,-8.3 	"/>
	<polygon class="st0" points="756.2,-4.7 756.1,-7.6 758.6,-7.5 758.7,-5.2 	"/>
	<polygon class="st0" points="832.5,122 829.9,121.8 830.3,119.1 832.9,120.9 	"/>
	<polygon class="st0" points="845,127.3 846.8,123.5 847.3,124.7 846.6,126.7 	"/>
	<polygon class="st0" points="868.8,150.8 864.3,151.5 862.1,150.3 849.4,134.5 846.9,133.3 846.8,132.6 848.9,131.4 850.9,128.6 
		851.9,129 853.2,134.3 863.5,147.6 867.4,148.8 	"/>
	<polygon class="st0" points="871.7,155.7 870.1,155.9 869.5,154.4 870.9,151.7 872.1,153.6 	"/>
	<polygon class="st0" points="865.7,156.6 863.4,155.6 865.8,153.8 	"/>
	<polygon class="st0" points="864.2,169.1 866.9,165.6 869.7,165.3 869,166.9 	"/>
	<polygon class="st0" points="860,172.2 857.6,172.6 857.7,170.7 859.2,169 861.7,168.8 861.4,170.6 	"/>
	<polygon class="st0" points="837.7,215.3 836.1,214.8 835.7,211.9 838.2,213.6 	"/>
	<polygon class="st0" points="871.9,218.1 869.9,216.7 870.8,214.7 873.4,213.7 	"/>
	<polygon class="st0" points="868,226.3 868,220.7 870,222.9 	"/>
	<polygon class="st0" points="892.6,241.8 894.6,238.4 894.8,241 	"/>
	<polygon class="st0" points="882.4,248.4 876.5,248 871.4,242.3 874.1,241.8 878.3,244.6 883.1,244.9 	"/>
	<polygon class="st0" points="897.7,250.9 896,249.9 895.7,247.8 897.7,246.9 899.2,250.3 	"/>
	<polygon class="st0" points="891.8,253.4 891,251.8 892.9,249.8 893.3,253.1 	"/>
	<polygon class="st0" points="903.8,262.2 903.7,260 902.3,258.3 902.2,256.4 905.7,259 905.1,261.6 	"/>
	<polygon class="st0" points="874.2,266.5 873.4,266.6 873.2,259.1 877.5,254.5 879.7,254.2 881.5,257.2 881,259.2 876.8,261.6 	"/>
	<polygon class="st0" points="897,267.8 895.5,268 894.6,263.3 895.8,262 897.4,264.3 	"/>
	<polygon class="st0" points="893.4,271.3 890.8,271.7 893.1,268.5 894,269.5 	"/>
	<polygon class="st0" points="904.9,288.6 903.4,288.1 904.3,283.8 905.6,283.6 	"/>
	<polygon class="st0" points="915.1,294.4 913.8,294.4 909,289.2 909.9,288.3 913.7,290.7 	"/>
	<polygon class="st0" points="906.8,306.7 904.3,305.9 906.8,302.8 908.5,304.1 	"/>
	<polygon class="st0" points="898.8,307.3 896.7,304.8 900.3,304.4 900.7,306.5 	"/>
	<polygon class="st0" points="889.1,313 885.5,311.9 885.1,310.4 886.8,309.6 889.3,312 	"/>
	<polygon class="st0" points="944.2,362.3 941.6,362.2 942,360.8 944.4,361.3 	"/>
	<polygon class="st0" points="1011.9,447.5 1011.5,443.5 1013.4,444.3 1013.7,446.2 	"/>
	<polygon class="st0" points="984.2,455.6 979.6,452.2 979.9,449.9 984.4,454 	"/>
	<polygon class="st0" points="1001.2,460.8 998.9,461.1 995.2,457.7 994.8,454.1 993,451.3 996.5,450.2 997.7,453.3 1000.9,457.8 	
		"/>
	<polygon class="st0" points="1141.9,582.8 1146,579.2 1149.4,578 1150.9,580.1 	"/>
	<polygon class="st0" points="2177.4,624 2178.5,625.8 2177.7,631.8 2176.3,629.7 2176.3,628 2176.3,625.1 	"/>
	<polygon class="st0" points="2183.2,635.5 2178,621.3 2182.1,627.3 	"/>
	<polygon class="st0" points="2187.1,640.3 2185.6,640 2185,632.8 	"/>
	<polygon class="st0" points="2183.3,642.6 2181.6,641 2180,632.9 2180.9,632.9 	"/>
	<polygon class="st0" points="2178.1,646.7 2179.3,647.4 2179.7,653.9 2178.5,653.5 2177.7,649.4 	"/>
	<polygon class="st0" points="2218.8,658.4 2219.4,657.6 2222,657.2 2223,656.5 2226,654.4 2233.8,646 2243.5,637.7 2244.3,637.8 
		2239.7,649.2 2237.8,649.8 2236.6,656.9 	"/>
	<polygon class="st0" points="2204.5,661.4 2203.1,661.4 2202.8,660.4 2215.7,658.6 2209.5,660.9 	"/>
	<polygon class="st0" points="2180,660.1 2185.3,659.7 2187.6,660.7 2188.1,662.2 2181,661.5 	"/>
	<polygon class="st0" points="1843,816.4 1844.9,818.1 1845.8,822.6 1845.4,823.9 1844.4,823.5 	"/>
	<polygon class="st0" points="1382.9,849.5 1384.7,854.1 1384.8,855.7 1380.6,859.3 1377.8,864.8 1374.6,865.1 1373.3,872.5 
		1369.7,875.4 1368.1,875 1367.1,874.8 1370.3,872.3 1368.5,868.8 1365.2,857.4 1365,854.1 1363.8,853 1363.6,850.4 1369.3,848 
		1373.7,846.6 1378.9,845.4 1382.1,847.7 1380.3,847.3 1379.2,848.3 1376.3,848.2 1374.5,848.7 1373.9,849.9 1374.1,850.6 
		1380.6,849.3 	"/>
	<polygon class="st0" points="1295.9,927 1296.6,922 1300.3,918.6 1304,927 1303.3,932.1 1299.6,937.2 1295.9,933.8 	"/>
	<polygon class="st0" points="1180.1,-85.9 1181.3,-84.5 1184.1,-87.8 1182.7,-96.5 1182.4,-108.7 1178.1,-123.1 1177.8,-123.8 
		1176,-134.4 1173.4,-136.7 1171.4,-141.9 1173.2,-149.1 1177.6,-154.2 1176.3,-155.3 1175.7,-158.9 1181.4,-173.8 1182.9,-184.4 
		1182.6,-186.5 1177.7,-221 1178.6,-228 1176.6,-243.5 1189.5,-242.2 1193.5,-227 1207.6,-191.8 1214.9,-189.3 1220.1,-190.8 
		1220.8,-186.6 1223.2,-186.9 1224.1,-189.3 1219.4,-196.3 1216.7,-204.2 1212.9,-213.2 1210.2,-222.2 1205.2,-238.4 1205.6,-242.8 
		2454.5,-271 2427,460.3 2418.9,463.1 2415.8,463 2415.4,463 2395.8,475.9 2394.9,478.6 2393.7,481.1 2375.9,496 2372.3,500.5 
		2367.1,504.9 2357.7,517 2351.1,523.7 2349.1,522.2 2347.5,524.1 2346.8,526.9 2335.3,536.5 2325.7,541.1 2325.1,542.6 
		2322.9,547.1 2312.9,551.7 2311.3,550.7 2315.6,547.1 2305.7,547.1 2303,547.1 2304.9,553.6 2304.5,554.2 2306.1,554.1 
		2303.2,557.5 2301.6,560.9 2301.8,562.3 2309.5,554.1 2310.4,555.2 2308.7,559.3 2305.1,564 2299.9,568.5 2298,568.6 2297,570.7 
		2297.8,573.4 2293.1,577.8 2287.7,584.8 2285.3,586.6 2277.9,597.6 2273.4,604.2 2269.3,605.5 2255.6,621.5 2248.7,632.5 
		2245.8,635.3 2243.2,635.2 2242.2,633.5 2244.4,628.1 2247.2,627.3 2249,625.7 2250.1,624 2252.2,621 2264.8,607.1 2270.7,602.6 
		2281.2,591.8 2283.3,586.9 2280.6,586.6 2275,590.6 2274.4,593.3 2271.6,598.3 2271.3,598.8 2265.8,603 2264.3,605.3 2260.3,609.1 
		2255,612.1 2246.2,619 2239.6,622.2 2234.6,623.4 2233.3,623.8 2229.9,622.5 2223.8,621.6 2223.7,622.9 2227.8,624.5 2230.5,624.6 
		2229.3,626.2 2220.1,625.6 2215.2,629.4 2213.8,629.3 2213.2,631.7 2210.4,632.4 2208.7,645.3 2207.4,649.2 2205.9,650.6 
		2204.7,647.4 2204.9,637.1 2202.5,633.7 2200.4,640.1 2201.1,648 2200.7,652.4 2198.5,659.3 2195.9,649.5 2195.9,640.9 
		2193.9,643.7 2192.3,643.9 2190.3,641.2 2188.1,636.1 2187.4,631.6 2184.9,629 2182.4,616.5 2178.1,611.6 2176.3,614.1 
		2176.2,619.1 2174.6,620.9 2175.9,629.8 2177.1,644.5 2176.1,650.2 2176.6,655.5 2174.4,659.8 2170.8,663.7 2166,664.9 
		2160.5,664.3 2154.2,665.8 2147,666.3 2141.5,666.1 2137.3,666.6 2121.8,665.6 2108.6,666.6 2107.6,666.4 2097,665.1 2094.2,665.2 
		2086.4,665.4 2079.5,666.6 2076.7,668.4 2076.8,665.2 2077.3,661.2 2076.7,660.4 2076.7,661.3 2075.2,661.9 2071.3,668.3 
		2068.7,669.6 2058.6,671.9 2057.2,671.3 2052.4,673.2 2049.6,673.2 2040.9,676.1 2040.2,677.4 2034.7,679.2 2033.5,676.5 
		2032.2,677.2 2033,680.2 2020.7,683.4 2011,689.1 2008.5,689.7 2008,688.4 2010.4,680.9 2007.9,683.3 2005.1,685.7 2004.9,687.7 
		2004.7,692.1 1999.6,693.8 1988.7,699.8 1975.5,709.5 1974.2,708.1 1970.3,710.9 1971,713.4 1970.3,716 1967.8,721.1 1963.4,722.7 
		1963.8,723.8 1962.7,724.6 1956.3,735.1 1952.5,743.8 1942.2,754.5 1938.8,755.5 1933.5,755.4 1926.3,753.9 1920.7,751 
		1920.8,752.5 1926.1,756.5 1937.8,760.7 1944.8,756.2 1950.7,748.2 1952.1,749.5 1946.5,756.2 1942.7,763.6 1940.1,770.8 
		1934.5,786.7 1926.2,798.1 1918.8,806 1912.7,811.1 1900.4,820.2 1897.9,821.5 1881,830 1876.2,834.2 1874,833.4 1864.9,841.4 
		1856.6,837.8 1853.9,834.1 1852.2,830.2 1851.8,826.6 1852.5,822.9 1854,820.8 1854.6,819.9 1857.7,810.5 1855.5,799.7 
		1852.6,790.6 1840.7,773.7 1833.3,769.5 1828.2,764.1 1823.7,763.7 1826.3,766.2 1829,772.5 1835.3,774.7 1846.5,790.9 1849,796.2 
		1850.3,802.4 1854.2,808.6 1850.1,823.7 1849.5,823.4 1849.3,819 1849.5,817.5 1850.3,812.9 1847.5,798.7 1844.7,794.1 
		1842.9,792.4 1842.4,793.9 1841.9,795 1844.2,797.1 1847.1,803.5 1846.4,809.6 1842.8,806.8 1841,803.5 1840.2,795.4 1838.3,790.8 
		1837,783.8 1835.5,782.4 1834.4,785.9 1835.1,790.6 1837.1,795.3 1836.4,797.5 1831.9,795.6 1828.6,795.4 1823.4,798 1817.4,790.7 
		1811.9,790.9 1807.1,792.8 1808.9,793.9 1814.3,792.9 1816,793.9 1821.9,801.2 1833.9,801.5 1837.1,804.4 1836.7,809.5 
		1839.2,811.6 1840.7,814.3 1841.1,820.5 1838,818.1 1832.8,819.1 1829.4,814.8 1825.4,811.7 1822.4,811.4 1815.7,813.2 1813,815.8 
		1815.6,816.5 1824,815.8 1825.3,817.1 1828.1,817.9 1830.7,819.8 1835.4,825.7 1837.8,827.1 1839.9,831.9 1844.3,838.2 
		1846.1,836.5 1842.9,828.1 1847.3,829.9 1848.3,832.6 1850.8,839.9 1853.5,841.8 1860.9,841.8 1860.7,843.2 1853.7,845 
		1841.9,845.4 1822.5,852.4 1815.2,854.4 1801.4,858.3 1794.2,861.7 1785.4,862.7 1779.9,865.8 1770,868.3 1752,874.8 1749,877.7 
		1744.2,878.9 1735,879 1725.1,877.9 1706.5,874 1695.8,869.5 1694.4,869.3 1689,868.5 1685.5,866.7 1668.5,868 1666,873.5 
		1651.4,871.7 1651.5,870.3 1657.6,869.6 1659.1,868.3 1654.1,864.4 1650.7,862.7 1645.7,860.4 1642,860.1 1641.9,862.6 
		1644.5,865.9 1645.6,868.7 1647.5,869.4 1647.9,870.9 1644.9,872.5 1641.5,872.2 1633.6,868 1626.3,866.7 1623.1,865 1621.9,861.9 
		1619.5,862.3 1609.6,856.5 1606.3,856.2 1597,848.2 1594.8,846.5 1583.2,841.9 1578.6,843.6 1572.1,839.3 1562.8,835.5 
		1558.1,832.3 1547.2,827.3 1537.5,821.8 1533.9,821.3 1531.1,818.8 1530.1,819 1526.9,819.7 1524.6,816.2 1520.7,816.9 
		1517.9,814.8 1506,810.1 1502.9,808.1 1494.9,807.4 1476.4,801.9 1468.1,801.4 1456.4,801.6 1449,800.1 1444.4,800.7 1438.6,799.7 
		1438,799.8 1428,801.5 1424.1,803.2 1422.7,801.8 1421.5,798.7 1422.7,792 1421.1,791.9 1419.1,799.1 1420,803 1406.9,804.1 
		1397.9,802.7 1394.8,800.8 1388.3,797 1353.3,767.3 1352.2,764.2 1355.7,764.4 1357.2,763.9 1357.6,762.3 1355,759.2 1349.4,757.6 
		1351.4,762.6 1350.1,763.3 1346.9,759 1343.6,756.6 1339.4,751.8 1337,748.2 1337.9,746.2 1339.8,746.6 1340.9,745 1338.7,742.9 
		1337.1,742.2 1335.1,747.6 1333.3,747.5 1323.9,737.9 1320.5,733.2 1310,723.2 1304.7,719.1 1301.1,717.6 1296.9,712.2 
		1286.2,702.9 1270.2,689 1263,683.3 1249,674.2 1252,672.7 1255.3,673.8 1264.1,672.1 1266.7,668.1 1268,665.6 1269.1,659.8 
		1271.9,653.8 1271.4,652 1272.8,647.1 1277.9,635.6 1274.7,636.6 1269.8,641.6 1269.4,645.2 1266.5,644.9 1263.5,654.5 
		1258.5,659.4 1243.1,666.8 1244.7,669.8 1243.1,670.5 1225.7,658.2 1223.9,655.6 1221.9,655.4 1217.3,652.5 1210.6,646.2 
		1207.6,645.8 1205,646.7 1202.5,645.7 1200.5,643 1199.9,642.3 1184.1,637.9 1170.5,629.9 1162.4,621.2 1154.8,616.4 1151.5,615.2 
		1150.1,612.6 1151.7,605.3 1148.6,592.7 1145.6,590.3 1145.9,588.4 1147.2,587.2 1147.3,585.8 1149.2,583.9 1156.9,581.6 
		1161.1,581.9 1167.2,586.8 1169.8,581.7 1166.2,579.7 1163.7,579.3 1162.4,577.9 1159.5,578 1155.4,579.1 1150.6,577.2 
		1145.9,577.8 1139.8,581.8 1136.4,585.6 1134.6,588.7 1132.3,590.5 1131.8,590.2 1131.1,590.2 1130.3,590.2 1128.5,590.1 
		1127.7,590.8 1127.4,591 1127.1,592.5 1126.4,592.4 1126.1,592.3 1125,592.5 1125,594.8 1127.4,599.3 1132.2,605.1 1137.6,608.2 
		1146.2,611.8 1149.4,614.9 1149.2,615.9 1148.6,615.7 1129.8,609.7 1127.8,610.1 1111.9,617.3 1110,621.2 1113.7,629.1 
		1112.9,630.8 1109.5,631.9 1103.6,632.3 1099.4,632.1 1090.1,631.8 1068.1,638.2 1061,638.5 1057.5,641.5 1043,646.1 1036.2,642.8 
		1035.6,642 1029.2,634.3 1021,621.9 1012.1,621.7 1006.6,619.9 1004.9,621.8 1002.8,627.4 1000.5,629.2 984.3,634.4 980.9,636.9 
		975.5,637.3 970.8,636.7 966.1,638.2 961.6,636.7 959.3,638.2 948.6,640.1 947.8,640.3 939.6,640.3 932.7,637.7 928.5,638 
		924.4,639.2 921.9,641.7 920.4,641.4 916.7,640.6 902.3,637.3 898.6,634.2 891.9,634.8 888.8,632.7 887.8,630.9 881.1,627 
		878.8,627.5 868.9,636.1 866.3,636.4 865.8,640 866.3,642.6 865,644.5 860.9,642.6 860.2,640.6 861.5,638.5 860.2,637.7 
		852.6,641.3 850,644 843.1,641.8 835,651.2 828.2,650.9 819.8,649.2 816.3,646.8 813.1,646.1 811.9,645.9 807.2,647.5 798.5,655 
		795.3,656.2 792.3,657.4 791.2,652.9 789.1,652.9 785.1,647 784.4,644.6 785,643 787.5,641.2 789.7,637.2 792,635.2 792.3,630.8 
		793.8,626.5 791.8,624.9 790,621.9 788.6,619.4 786,617.1 785.5,618 784.3,616 783.6,611.2 785.6,604.8 788.6,604.5 793.2,594.2 
		793.6,589.2 795.4,586.2 795.4,582.5 807.8,579.8 808.7,578.3 807.4,574.8 805.2,575.4 801.4,576.6 795.8,574.7 793.5,574.8 
		791.6,572.8 789,572.3 785.3,567.8 784.3,564.6 781.2,564.9 779.5,561.6 781.6,559.8 780.5,558.4 780.8,557.3 792.7,547.1 
		794.2,537.9 793,529.2 794.1,527.4 792.8,522.5 794.2,518.5 793.5,514.9 794.8,508 795.7,506.6 798.5,501.8 808.4,505.4 
		810.2,508.9 809.7,509 813,512.6 816.4,514.1 820.3,521 823.4,523.1 824.6,525.5 827.1,526.4 830.9,531.4 834.7,547.1 830.9,549.6 
		832.3,555.6 831.8,558.4 832.4,560.6 837,556.5 838.9,555.7 851.4,560.6 861,561.5 866.8,560.1 867.1,559.1 867.6,557.6 
		867.3,552.2 867.9,549.5 871.8,547.1 876,542 880.5,540.5 882.2,542 885.6,541.7 894.2,535 899.4,530.9 905.6,530.4 912.8,537 
		918.9,538.9 919.9,537 924.2,536.3 931,529.6 932.3,525.2 938.4,523.2 941.5,520.5 943.4,521.5 949.1,520.6 949.9,520.5 
		951.7,523.9 953.9,521.2 957.9,520.3 963.4,511.2 966.6,514.1 969.7,512.6 975.4,512.2 972.1,508 971.4,508.2 967.9,504.9 
		962.3,502.9 957.6,497.6 959.7,496.5 958.3,494.3 955.2,494.9 952.8,496.2 951.4,496.1 952,494.4 953.7,493.7 953.8,490.7 
		955.3,489.1 955.1,486.8 963.5,481.9 964.2,483.2 961.3,486.6 964.1,487.2 966.2,484.9 969.5,483.4 971.4,487.5 971.1,490.3 
		967.5,487.4 966.9,489.2 963.7,490.3 960.6,491.4 961.2,493.1 965.2,494.7 972.1,493.2 973.4,495.3 978.6,494.3 978.2,491.1 
		981.7,491.4 983.6,490.5 983.3,488.8 977.7,487.2 976.7,485.7 977.5,483.9 983,484.3 984.7,482.8 984.6,482.1 975.7,479.2 
		973,476.7 972,475 968.4,469.2 963.2,465.4 958.5,463.6 954.5,464.7 954.6,461.9 957.3,460.5 958.5,458.2 962.8,459.7 966.6,463.8 
		970,464.6 972.8,463.1 975.7,458.9 976.9,459.8 975.7,463.5 977.9,466.2 981.7,464.1 982.4,466.4 982.6,466.9 987.5,466.1 
		988.3,462 991.2,461.2 995.1,465.3 997.5,465.2 999.7,470.6 999.4,476 1000.6,477.5 1002.3,475.1 1007.5,476.1 1010.6,475.7 
		1010.5,475 1003.6,471.4 1004.2,468.3 1006.7,467.7 1006.9,465.4 1004.7,464.1 1004.6,463.1 1007.6,462.4 1009.5,462 1009.7,461.5 
		1010.2,460.3 1003.1,455.6 1004.2,451.5 1008.5,450 1013.4,454.3 1013.9,457.2 1012.5,460 1013.4,460.7 1018.8,459.7 1022,457.3 
		1020.6,455.2 1021.1,453.7 1025.5,452.9 1028.5,451.3 1031.2,451.6 1031.1,451 1036,450 1036.1,448.7 1031.6,446.9 1028.3,445.6 
		1020.4,449.6 1017.9,449.1 1016.3,450.7 1015,449.4 1018.6,444.7 1016.2,440.8 1017,439.4 1019.7,438.3 1022.3,439.6 1025.3,436.2 
		1025.4,436.9 1028.8,437.3 1031.8,434.4 1028.2,431.8 1017,435.4 1014.8,434.3 1008.9,431.3 1003.2,433.3 1001.8,432 1004.7,429.9 
		1005.7,424.4 1004.2,417.6 999.1,415.9 993,416.9 992.7,419.6 988.6,420.5 986.6,420.1 985.5,421.7 982.8,419.7 984.2,417.8 
		987.9,416.7 985.2,414.3 986.2,413 986.6,413 988.9,412.7 990.6,408.9 990.4,402.6 991.5,401.7 1002.1,386.9 1006.2,384.5 
		1024.5,359.1 1026.3,358.9 1030.7,362.3 1035.6,361.2 1037.3,362.2 1037.9,362.6 1041.6,361.6 1045,362.7 1048.1,362.1 
		1049.2,359.9 1047.4,358.3 1039.5,358.5 1037.9,353.6 1043.4,348.7 1049.2,346.1 1052.2,342 1053.4,341.8 1055.7,341.3 
		1057.8,342.6 1059.7,341.7 1059.7,338.1 1063.8,338.7 1065.4,341.6 1064.1,345.4 1066.7,348.6 1071.5,348.7 1073.6,346.3 
		1076.3,345.6 1076.3,346.1 1081.4,343.9 1082.3,349.2 1087.8,352.6 1096.5,351.7 1099,347.2 1101.5,342.3 1105.7,338.9 
		1111.6,337.6 1113.7,336.6 1114.9,336 1114.8,335.4 1108.2,334 1104,334.6 1098.9,337.8 1097.2,341.5 1093.1,344.3 1087.8,343.6 
		1086.6,341.4 1094.9,338.4 1097,336.3 1096.1,333.5 1091.1,329.8 1082.3,329.6 1081,329.5 1073.7,331.7 1069.5,330.8 1066.6,331.4 
		1057.2,328.3 1053.7,324.6 1041.2,326.9 1035,332.6 1030.9,333.5 1030.2,334.9 1021.9,342 1019,347.1 1018.7,347.2 1011.8,349.7 
		1007.3,358.9 1003.6,361.6 1000.5,365.8 992.6,370 984.2,378.2 979.8,378.9 976.9,381.5 974.7,380.3 965,381.3 961.1,381.8 
		952.8,381.6 948.8,377.4 945.2,375.3 941.7,374.9 937.9,377.3 936.5,374.5 940.1,372.7 942.4,367.7 945,367.1 946.5,363.6 
		949.7,363 954.9,352.3 956.5,352.8 957.5,355 959.4,351.9 963.4,347.7 963.6,343.9 967.3,344.7 972.8,342.9 975,345 976.9,344.7 
		978.2,341 980,340.6 982.8,343.6 986.5,342.7 989.6,341.3 989,337.9 989.8,335.9 994.1,334.7 993.4,333.7 991.9,331.6 985.2,335.1 
		980.7,329.5 978,330 978.1,330.5 974.6,329.5 971.2,332.6 968.9,332 965.7,332.5 963.8,334.5 965,340.3 963.4,340.5 956.4,334.6 
		954.9,332.4 951.5,327.1 955.2,317.2 957.6,315.5 956.3,308.3 957.1,299.2 959.7,298 959.4,307.1 963.3,303.6 963.5,292.8 
		966.2,289.5 965.2,286.4 966.6,280.8 972.2,267.9 973.3,267.7 975.1,269.8 976.5,269.8 978.6,266.8 983.5,265.1 989.2,258.3 
		993.2,260 1002,256.8 1007,254.1 1011.1,255.5 1014.5,254.7 1015.8,255.4 1017.5,254.4 1017,251.9 1015.5,251.6 1012.1,248.2 
		1011.3,248.8 1004.1,249.1 1003.5,247.6 1009,245.8 1012.3,242.5 1015.5,234 1018.9,230.4 1017.1,228.3 1011,229.5 1005.9,229.3 
		1003.4,232 997.4,235.4 994.1,236.3 993.6,237.5 996.3,241.3 992.9,242.4 989.7,240.4 987.8,242.6 986.2,246.5 984.5,247.5 
		980.7,254.9 978.3,256.2 977.9,254 980.9,249.3 982.4,247 980.2,244.4 976.9,247.2 973.6,247.6 967.2,258.6 960.3,258.5 
		954.7,262.3 952.4,253.7 956.1,247.5 959.1,239.5 959,235.5 957.5,235.7 953.8,240 954.1,243.1 954.2,243.9 949.6,248.8 947.9,254 
		947.1,258.9 948.6,264 945,266.1 941.1,270.8 942.3,274.7 941.3,289.2 939.4,290.6 936.3,290.4 935.1,290.1 935.5,286.8 933,287.6 
		930.2,290.3 923.3,296.7 921.5,296.3 923.8,292.3 927.1,289.8 927.4,287.6 921.6,291.3 919.2,291.2 916.8,289.5 915.7,287.4 
		915,287.5 912.6,284.6 912.7,277.2 910,276.9 910.4,273 909.5,272.8 903.7,281.4 902.7,281.8 902.7,280.9 902.5,277.8 911,260 
		912.3,255.7 906.6,255.5 905.8,251 906.5,249.8 908.8,249.5 909.1,247.7 907.4,245.7 902.7,248.1 902.5,246 906.1,242 902.7,239.8 
		902.3,237.7 904.7,234.5 905,234.1 905.8,230.9 904.2,231 898.8,237.5 896.2,235.7 892.1,238 888.8,242.8 887.2,243 884.4,241.4 
		882.1,242.8 876.9,233.3 878.4,229.2 875.3,227.9 876.9,224.4 876.8,216.5 880.8,213 879.9,211.3 879.8,211.1 874.1,212.4 
		872.3,207.7 869.1,202.4 869.6,199.6 854.5,189.4 854.2,184.3 856.7,184.9 859,189.5 862.2,192.2 871.8,197.5 871.7,196.9 
		873.7,196.5 883.4,194.4 883.7,193 881.2,190.7 875.6,193.7 875,192.4 880.1,180.3 881.5,179 888.8,178.6 886,175.5 879.8,173.4 
		881.9,169.2 884.5,164.4 863.3,182.3 861.8,181.8 862.2,180.5 862.9,177.3 861.1,173.9 867.3,170.9 871.4,167.7 875.5,158.3 
		878.8,157.7 880.2,150.7 880.5,144.2 882.5,142.6 887.5,140.6 888,137.5 886.9,134.2 881.1,132.3 876.6,129 874.9,128.8 
		873.1,130.5 870.6,130.9 869.1,129.4 865,130 860.9,133.5 856.1,131.3 856,130.7 860.4,129 859.1,124.6 862.6,122.9 862.9,119.5 
		858.6,120.7 854.7,121.8 856,119.4 861.6,115.1 864.5,106.4 863.9,104.2 868.5,101 867.5,100 864.2,100.2 860.5,104 859.9,109.2 
		857.5,112.3 852.5,111.7 852.3,110 852.7,108.5 854.4,107.8 855.8,107.1 855.9,105.5 855.1,104 854.5,104.1 853.6,105.5 
		852.7,107.5 851.8,107.8 849.4,107.8 847.8,107.5 846.9,109.4 846.8,112.4 845,113.8 838.8,111.1 836.7,108.5 833.5,110.3 
		821.3,121.4 821.4,122.2 827.9,124.3 828,125 824.6,126.2 814.7,124.3 808,128.9 806.3,128.9 805.4,128.9 797.2,123.4 798.9,122 
		807.9,125 810,124.4 811.3,120.6 807.5,118.4 805.4,120 802.3,118 803.9,115.5 803.3,110.9 800.1,110.3 797.6,108.3 794.9,108.1 
		793.3,107.9 783.3,111.1 779.8,110.2 776.4,111.3 776.6,112.8 788.4,120.6 793.3,124.8 793,125.8 785.8,122 778.4,116.8 771.6,115 
		768.8,114.6 764.3,114.1 760.2,110.4 741.8,114.5 736.6,114.5 731.5,110.8 721.3,110.2 721,110.9 715.1,113 708.6,110.8 
		701.4,111.3 691,109.2 682.8,105.6 677.4,104.8 660.6,97.7 655.2,97.3 642.7,96.4 634.8,98.2 630.6,101.5 630.8,107.7 629.5,111 
		624.9,113.8 618.3,115.9 615.3,115.6 609.7,111.5 603,109.7 598.4,110 586,110.8 585.8,109.8 589.6,108 601,107 598,104.9 
		592.9,103.9 589.1,105.2 579.9,110.6 571.6,120.7 571,123.4 571.5,124.3 574.3,129.5 572.7,133.5 568.6,139 569.3,138.9 
		570.6,142.7 562.9,144.9 555.5,141.9 550.4,144 544.2,146.6 537.9,146.4 531.1,151.4 526.3,146.9 523.5,146.4 521.2,144 
		517.4,143.1 516,141.3 512.7,141.3 509.6,138.5 503.6,137.4 503.4,132.9 499.6,123.3 499.4,122.9 496.3,118.6 489.1,102.1 
		489.9,97.3 487.2,97 486.4,100.2 484.2,100.6 482.6,99.1 479.8,89.6 474.7,79.9 472.3,65.4 474.6,64.1 479,66.7 483.1,64.4 
		486.1,64.5 489.4,60 491.8,59.6 494.1,54.8 498.8,52.4 501.7,47.2 504,46.6 507,47.7 514.2,42.4 517.2,42.2 520.5,43.4 524.1,40.1 
		526.6,42.6 527.7,43.6 525.1,44.3 525.1,46.1 530.9,51.7 533.2,52.1 528.7,45.7 530.5,45.2 537.7,53 550.1,56 554.6,59.4 561.2,61 
		563.1,60.8 567.3,60.4 570.2,61.5 575.2,57.5 580.4,48 583.2,47.9 586.9,49.6 592.6,48.2 597.1,44.4 601.9,32.9 605,29.3 
		608.3,28.8 614,30.3 614.7,30.5 619.9,30.4 626.1,28.1 628.3,28.3 628.9,29.4 627,32.1 634.5,32.9 630.4,21.9 634.1,22.3 
		637.7,19.8 638.1,18.3 643.4,21.1 644.8,27.3 641.4,33.1 641.4,35.2 641.4,36.1 643.2,37.7 646,37.2 647.7,35.6 645.6,32.8 
		647.5,30.4 650.2,30 652.4,31.3 653.9,36 650.5,39 650.5,42.3 654.3,44.7 659.7,41.5 661.5,41.6 664.4,44 667.5,43.7 668.5,43.6 
		670.9,40.7 673.3,27.6 670.5,22.5 670.6,16.8 667.4,7.9 668.4,3 670.4,0.2 673.4,-4 677.8,-8.1 684.4,-6.2 687.6,-4.6 689.5,-3.5 
		702.1,-1.5 702.4,-0.4 701.8,0.2 695,7.5 692.1,14.6 693.6,19.8 689.5,20.1 688.1,25.4 684.2,30.4 687.7,35.5 689.6,34.2 
		692.4,38.3 693.4,39.8 693.9,44.4 696.7,44.5 699,48.6 700.4,47.9 700.9,41.4 698.1,23.5 698.6,22.1 701,23.1 701.8,20.7 
		707.1,21.7 711.5,24.8 715.9,24.7 718.7,28.5 718.3,30.8 716.8,39.6 717.8,41.2 719.3,40.4 721.4,31.4 720.5,24.3 718.3,21.8 
		709.9,20.5 708.6,18.9 711.3,6.5 715.6,1.3 716.9,0.2 720.8,-3 722.6,-4.5 730.1,-4.3 735.2,-1 736,0.2 737.3,2.2 738.1,8.7 
		742.2,8.3 744.2,4.6 747.3,3.9 751.7,0.2 753.9,-1.6 757.1,-1.9 759.7,0.2 759.8,0.2 764.5,-4.7 773.1,-9.3 773.4,-9.5 
		775.6,-12.6 755.6,-14.2 754.9,-15.9 756.2,-18 764.8,-21.2 766,-18.7 768.6,-19.4 771.1,-27.7 780.2,-31.9 782.9,-37.2 
		784.5,-38.3 787.6,-40.6 790.1,-39.6 790.6,-37.1 787.7,-33.9 788.1,-31.7 792.9,-35 795.2,-31.7 798.6,-29.5 795.1,-28.7 
		793.7,-24.1 798.1,-24.4 798.2,-23.8 795.1,-20.3 794.1,-16.5 790,-15.1 786.6,-12.2 784.1,-11.4 783.4,-10 785.5,-9.2 788.7,-9.6 
		788.8,-9.6 790.8,-11.8 794,-11.5 796.9,-15.2 799.1,-14 797.8,-9.2 796.5,-7.9 800.3,-5.7 800.3,-1.6 800.9,0.2 801.4,2 
		806.5,5.9 810.4,5.2 817,10.1 822.2,18.4 823.5,18.6 821.9,13.3 821.1,12 814.1,1.8 813.5,0.2 812.8,-1.6 815.3,-6.6 814.6,-10.2 
		818.2,-13.8 819.5,-16.5 824.3,-13.9 825.9,-14.1 824.7,-20.1 832.7,-26.2 838.9,-24.4 842.3,-24.6 852.1,-22.3 859.8,-24.6 
		865.4,-28.1 873.6,-28.2 875,-30.2 876.4,-29.9 882.2,-32.2 883.8,-29.8 888.3,-28.3 890.7,-24 896.3,-24.8 908.6,-20.9 
		909.1,-16.3 910,-16.2 916.8,-15.7 918.5,-13.9 919.6,-15.1 923.7,-15.8 927,-11.9 928.9,-12.1 931.8,-19.1 936.4,-16.4 
		937.7,-16.4 939.7,-18.6 951.9,-17.4 960.7,-13.1 969.3,-14.1 973.8,-10.8 977.6,-11.5 985,-12.9 1004.2,-13.8 1006.2,-10.7 
		1008,-12.5 1010.8,-14.7 1011,-18 1012.7,-21.1 1010.6,-31 1005.2,-33.1 1002.7,-34.1 1001.5,-38.3 1003.9,-42.8 1012,-48.7 
		1014.3,-52.4 1013.3,-60.1 1017.1,-62.7 1021.5,-71.2 1024.1,-80.2 1026.1,-82.4 1029.3,-92.9 1028.6,-92.8 1027.5,-96.6 
		1026,-106.4 1022.7,-111.1 1022,-110.4 1016.6,-111.9 1012.3,-111.5 1005.8,-110.8 1004,-109.2 1003.3,-103.4 1000.6,-100.4 
		1001.7,-94.7 1000.9,-90.9 998.7,-92 994.2,-85.4 987.7,-80.6 978.4,-70.9 962.3,-60 957.4,-58.6 943.6,-57.7 940.8,-56.4 
		937.9,-57.4 934.2,-57.2 932,-58.8 930.6,-59.8 929.8,-63.4 922.5,-64.2 918.3,-63.6 915.7,-65.5 909.8,-64.6 907.3,-66 
		902.9,-64.4 899.6,-66 896.1,-69.5 889.1,-72.9 887,-73 883.1,-76.3 873.7,-80.7 871.6,-84.6 867.9,-91.6 864.3,-90.9 863.5,-86 
		858.8,-86 854.8,-84.9 853.3,-81.4 851.2,-83.1 849.2,-83.2 846.5,-85.8 838.4,-86.6 831.4,-85.8 827.4,-89.1 828.8,-91.5 
		827.6,-94.7 830.5,-95.1 832.9,-93.6 836.4,-91.2 840.1,-91.4 842.8,-93.4 846.8,-99.8 851.6,-97.9 854.2,-100.2 851.9,-102.1 
		839,-105.4 836.6,-104.6 832,-100.7 830.3,-101.5 832.7,-105.8 838.3,-111.2 841.2,-122.9 845.3,-126.1 847,-130.1 849.3,-130.9 
		851.5,-129.8 855.1,-131.3 858,-132.5 861.8,-135.7 861.8,-140.4 860.7,-142.4 864.8,-144.9 868.1,-150.2 870.3,-149.6 
		870.6,-146.9 873,-146.4 875.9,-150.3 877.4,-155.6 876.2,-159.2 877.2,-161.1 881.2,-162.5 886.2,-163.1 896.3,-167.9 
		898.7,-170.1 903.7,-170.2 905.2,-170.3 918.2,-176.1 925.4,-180 933.4,-188.7 938.6,-192.1 949.9,-200.7 951.4,-204.1 
		954.2,-204.3 957.9,-208.4 958,-207.9 964.3,-208.4 967.3,-210.6 969.8,-217.6 969.1,-217.5 968.3,-219.7 970.4,-219.4 
		975.7,-209.7 978.6,-211.3 973.7,-220 979.2,-222.8 982.4,-228.5 989.9,-227.6 990,-226.9 1012,-232.1 1014.5,-231 1015.6,-231.7 
		1023.3,-236.4 1030.3,-244.1 1013.3,-240.5 1009.4,-239.3 1005.8,-240.2 1001.6,-243.5 978.4,-244 972.9,-243.5 969.9,-240.1 
		968.7,-241.4 918.8,-241.4 918.4,-242 912.5,-234.7 910,-234.3 908.6,-235.6 906,-234.4 903.1,-238.1 902.2,-239.2 898.3,-238.8 
		897,-241.2 893.9,-239.5 1086.8,-243.6 1087.7,-242.7 1094.5,-244.2 1141.6,-244.1 1146.6,-239.1 1148.5,-236.4 1152.7,-237.2 
		1153.3,-233.5 1150.7,-225.9 1155,-219.5 1156.1,-212.5 1154.4,-206.1 1156.9,-191.3 1154.5,-178.3 1153.2,-171.5 1154.3,-162.6 
		1158.2,-159.3 1158.5,-153.8 1161.4,-150 1160.7,-147.2 1163,-143.1 1167.6,-135 1167.9,-128.8 1176.6,-110.9 1177,-98.7 
		1177.7,-88.5 	"/>
	<path class="st1" d="M2012.2,183.3c-2.4,6-9.6,20.4-25.3,16.8c-15.6-3.6-26.5-3.6-33.7,8.4c-7.2,12-9.6,15.6-18,22.9
		c-8.4,7.2-9.6,18-7.2,25.3c2.4,7.2,14.4,18,14.4,18l9.6,1.2c0,0-19.2,12-22.9,18c-3.6,6-9.6,21.7-14.4,32.5
		c-4.8,10.8-14.4,24.1-19.2,28.9c-4.8,4.8-14.4,52.9-1.2,58.9c13.2,6,14.4,7.2,15.6,15.6c1.2,8.4,14.4,12,13.2,18
		c-1.2,6-7.2,50.5,12,50.5c19.2,0,22.9,8.4,34.9,7.2c12-1.2,24.1-6,26.5-14.4c2.4-8.4,2.4-12,3.6-16.8c1.2-4.8,3.6-16.8,3.6-16.8
		s12,2.4,20.4-6c8.4-8.4,14.4-18,20.4-12c6,6,10.8,0,13.2-4.8c2.4-4.8,3.6-12,9.6-9.6c6,2.4,9.6,4.8,14.4,8.4
		c4.8,3.6,14.4,12,7.2,25.3c-7.2,13.2-8.4,42.1-8.4,49.3c0,7.2-7.2,33.7,6,42.1c13.2,8.4,43.3,6,50.5-1.2c7.2-7.2,13.2-18,3.6-27.7
		c-9.6-9.6-21.7-14.4-14.4-19.2c7.2-4.8,12-9.6,13.2-15.6c1.2-6,2.4-13.2,21.7-8.4c19.2,4.8,37.3,3.6,42.1,10.8
		c4.8,7.2-3.6,16.8-9.6,24.1c-6,7.2-9.6,13.2,1.2,24.1c10.8,10.8,24.1,20.4,28.9,25.3c4.8,4.8,14.4,10.8,24.1,10.8
		c9.6,0,30.1-3.6,36.1-13.2c6-9.6,9.6-19.2,12-25.3c2.4-6,4.8-12,10.8-16.8c6-4.8,25.3-13.2,34.9-14.4c9.6-1.2,22.9-18,16.8-30.1
		c-6-12-10.8-13.2-12-24.1c-1.2-10.8,2.4-26.5,2.4-26.5s7.2,7.2,13.2,14.4c6,7.2,15.6,9.6,21.7,3.6c6-6,10.8-9.6,1.2-18
		c-9.6-8.4-10.8-13.2-10.8-19.2c0-6,7.2-10.8,15.6-8.4c8.4,2.4,22.9,6,30.1,8.4c7.2,2.4,31.9-294.7,19.8-298.3
		c-12-3.6-51.1-1.2-63.1-3.6c-12-2.4-19.2-1.2-27.7,8.4c-8.4,9.6-9.6,19.2-22.9,20.5c-13.2,1.2-27.7,9.6-32.5,21.6
		c-4.8,12-10.8,30.1-19.2,37.3c-8.4,7.2-30.1,14.4-19.2,4.8c10.8-9.6,9.6-15.6,6-27.7c-3.6-12-7.2-26.5-12-22.9
		c-4.8,3.6-8.4,9.6-8.4,18c0,8.4-7.2,21.7-12,12c-4.8-9.6-4.8-16.8,4.8-33.7c9.6-16.8,6-28.9,2.4-38.5c-3.6-9.6-7.2-15.6-16.8-14.4
		c-9.6,1.2-25.3,10.8-36.1,8.4c-10.8-2.4-32.5-3.6-40.9,7.2s-16.8,13.2-36.1,13.2s-36.1,0-39.7,7.2c-3.6,7.2-7.2,16.8-25.3,26.5
		c-18,9.6-19.2,20.4-19.2,20.4S2014.6,177.3,2012.2,183.3z"/>
	<path class="st1" d="M1650.1,67.9c-15.6,9.6-19.2,20.5-19.2,28.9c0,8.4-1.2,25.3,2.4,30.1s8.4,26.5,16.8,31.3
		c8.4,4.8,16.8,13.2,20.5,20.5c3.6,7.2,24.1,21.7,34.9,13.2c10.8-8.4,18-21.7,20.5-10.8c2.4,10.8,10.8,14.4,20.4,14.4
		c9.6,0,14.4-3.6,10.8-15.6c-3.6-12-7.2-20.4,4.8-18c12,2.4,22.9-1.2,28.9-12c6-10.8,14.4-31.3,14.4-38.5s7.2-13.2-1.2-43.3
		c-8.4-30.1-20.4-22.9-24.1-34.9c-3.6-12-20.5-7.2-27.7-4.8c-7.2,2.4-16.8-1.2-31.3-9.6c-14.4-8.4-26.5-7.2-33.7-1.2
		c-7.2,6-15.6,10.8-18,21.7c-2.4,10.8-9.6,19.2-9.6,19.2S1665.8,58.2,1650.1,67.9z"/>
	<path class="st1" d="M1484.1,46.2c-9.6,0-22.9,12-28.9,18c-6,6-27.7,32.5-27.7,40.9s-1.2,22.9-1.2,22.9s-7.2-7.2-14.4,0
		c-7.2,7.2-13.2,19.2-18,25.3c-4.8,6-19.2,9.6-28.9,13.2c-9.6,3.6-34.9,15.6-39.7,21.7c-4.8,6-18,15.6-24.1,20.4s-9.6,40.9,2.4,32.5
		c12-8.4,21.7,4.8,24.1,13.2c2.4,8.4-3.6,18,13.2,21.7c16.8,3.6,25.3-4.8,26.5-12c1.2-7.2,9.6-25.3,12-4.8
		c2.4,20.4,10.8,28.9,24.1,14.4c13.2-14.4,26.5-25.3,39.7-31.3c13.2-6,21.7-4.8,26.5-19.2c4.8-14.4-6-15.6,8.4-28.9
		c14.4-13.2,15.6-20.4,10.8-27.7c-4.8-7.2-6-13.2,6-21.7c12-8.4,20.5-10.8,13.2-24.1c-7.2-13.2-9.6-14.4-2.4-21.6
		c7.2-7.2,13.2-18,8.4-37.3C1509.4,42.6,1493.8,46.2,1484.1,46.2z"/>
	<path class="st1" d="M1609.2,680.1c0,0-18-18-18,1.2c0,19.2,0,34.9-6,39.7c-6,4.8-7.5,17.9-11.1,22.7c-3.6,4.8-11.7,1.4-19-4.6
		c-7.2-6-21.7-9.6-28.9-9.6c-7.2,0-34.9-7.2-38.5,0c-3.6,7.2,0,20.5,8.4,22.9c8.4,2.4,15.6,8.4,25.3,14.4c9.6,6,29.4,9.8,39.7,1.5
		c19.4-15.7,33.6,5.7,42.1,14.1c8.4,8.4,25.3,13.2,57.7,12c32.5-1.2,36.1-10.8,36.1-19.2s1.2-21.7,9.6-30.1c8.4-8.4,6-21.7,0-26.5
		c-6-4.8-13.2-13.2-4.8-18c8.4-4.8,7.2-12-1.2-25.3c-8.4-13.2-25.3-14.4-28.9-20.4c-3.6-6-10.8-4.8-20.4-1.2
		c-9.6,3.6-20.5,3.6-27.7,7.2c-7.2,3.6-8.4,7.2-9.6,12C1612.8,677.7,1609.2,680.1,1609.2,680.1z"/>
	<path class="st2" d="M803-243.5"/>
	<polygon class="st2" points="794.5,-232.7 792.8,-235.6 795,-236 	"/>
	<polygon class="st2" points="777.8,-231.7 776.2,-232.7 776.5,-234.8 778.7,-235.3 778.9,-232.4 	"/>
	<polygon class="st2" points="919.6,-230.3 919.1,-230.4 920.5,-233 921,-230.9 	"/>
	<polygon class="st2" points="784.3,-228.4 783.8,-230.6 786.3,-231.9 786.2,-230.1 	"/>
	<polygon class="st2" points="791,-227.3 788.8,-227.2 789.6,-229.7 791,-229.2 	"/>
	<polygon class="st2" points="798.3,-226 797.2,-228.5 799.1,-229.4 799.2,-226.5 	"/>
	<polygon class="st2" points="730,-227.9 730.7,-225.9 729.5,-225.3 	"/>
	<polygon class="st2" points="712,-223.6 709.8,-224.5 710.7,-225.9 712.1,-225.4 	"/>
	<polygon class="st2" points="806.1,-217.3 805,-219.3 806.6,-221.2 807,-218.9 	"/>
	<polygon class="st2" points="736.1,-215.4 731.6,-215.3 731.5,-215.9 735.3,-218.5 737.3,-218 	"/>
	<polygon class="st2" points="809.5,-214.8 809,-214.7 809.3,-217.4 810.9,-217.3 810.9,-215.2 	"/>
	<polygon class="st2" points="743.6,-204.4 740.6,-204.8 740.4,-205.9 746.7,-207 747.6,-205.4 	"/>
	<polygon class="st2" points="903.8,-201.2 901.5,-203.2 903.6,-204 904.8,-202.7 	"/>
	<polygon class="st2" points="763.2,-200.6 765.1,-205.9 767.5,-206 767.5,-204.3 	"/>
	<polygon class="st2" points="908.8,-200.2 907.7,-201.8 909.8,-202.6 909.8,-200.7 	"/>
	<polygon class="st2" points="896.7,-196.9 896.6,-198.4 898.4,-200.1 898.8,-198.1 	"/>
	<polygon class="st2" points="900.9,-193.8 898.2,-194.4 898.9,-195.6 901.4,-196 	"/>
	<polygon class="st2" points="811.4,-193 810.6,-194.3 812.8,-198 815.7,-198.8 816.2,-195.2 	"/>
	<polygon class="st2" points="938.6,-192.1 937.1,-194.5 937.2,-196.5 938.8,-197.1 940.2,-195.8 	"/>
	<polygon class="st2" points="898.5,-172.2 896.6,-173.3 897.6,-174.5 899.4,-173 	"/>
	<polygon class="st2" points="845.9,-166.7 843.7,-168 843.5,-168.9 847.5,-170.2 847.4,-168.4 	"/>
	<polygon class="st2" points="759.8,-147 756.4,-147.8 758.2,-149.7 761.4,-151.1 763.3,-149.6 	"/>
	<polygon class="st2" points="824.9,-145 822.8,-145 824.3,-147.7 	"/>
	<polygon class="st2" points="847,-143.9 845.3,-145.7 847.2,-146.5 848.2,-145.2 	"/>
	<polygon class="st2" points="856.1,-138.4 854.1,-139.8 856.5,-142.8 857.5,-141.2 857.2,-139.1 	"/>
	<polygon class="st2" points="775.2,-100.2 772.8,-100.7 772.7,-101.3 774.9,-102.4 	"/>
	<polygon class="st2" points="818.2,-99.1 817.8,-100.4 819.4,-102.8 827,-105.5 826.9,-103.2 821.5,-100 	"/>
	<polygon class="st2" points="836.8,-97.7 840.4,-99.1 841.4,-96.5 839.8,-95.1 835.9,-95.6 	"/>
	<polygon class="st2" points="824.5,-87.9 822.5,-88.4 822.2,-90.2 824.2,-90.6 	"/>
	<polygon class="st2" points="804.3,-85.5 802.5,-87 803,-91.5 808.6,-96 813.2,-98.1 814.8,-97.6 815,-95.3 814.2,-94.5 
		810.7,-94.6 805.6,-90 806.1,-86 	"/>
	<polygon class="st2" points="844.9,-77.7 838.9,-79.6 837.8,-82 844.1,-82.5 	"/>
	<polygon class="st2" points="797.5,-77.3 797.2,-79.4 799.6,-80.3 801.5,-83.1 803.5,-81.9 803.5,-78.7 	"/>
	<polygon class="st2" points="771.3,-76.3 768.7,-76.6 771.1,-78.3 	"/>
	<polygon class="st2" points="836.5,-72.2 829.9,-74.6 830.1,-76.4 833.8,-76.2 836.6,-73.6 	"/>
	<polygon class="st2" points="860.5,-71.1 856.4,-73 856.3,-74.4 858.5,-74.8 	"/>
	<polygon class="st2" points="823.7,-65.2 823.2,-67.2 826.2,-70.3 828.5,-68.5 826.4,-68.3 	"/>
	<polygon class="st2" points="791.8,-65 789.9,-66.2 790.3,-67.8 792.8,-68.1 793.1,-65.5 	"/>
	<polygon class="st2" points="816.6,-60.4 814.7,-60.6 814.5,-63.5 816.4,-66.4 818.4,-65.4 817.8,-61.9 	"/>
	<polygon class="st2" points="894.4,-57.1 895.7,-59.7 896.5,-59.9 896.4,-57.7 	"/>
	<polygon class="st2" points="769.3,-56.1 770.2,-59.1 771.7,-58.5 771.9,-56.7 	"/>
	<polygon class="st2" points="841.3,-46.9 837.2,-46.5 836.6,-48.9 839.5,-50.1 842,-48.3 	"/>
	<polygon class="st2" points="731.9,-45 731.1,-46.7 734.3,-47.7 734,-46.4 	"/>
	<polygon class="st2" points="660.5,-42.8 659.7,-45.4 661.9,-46.2 661.7,-43.8 	"/>
	<polygon class="st2" points="781.9,-39.7 778.9,-40.9 782.2,-44.9 782.9,-42.9 	"/>
	<polygon class="st2" points="855.2,-41.1 846.3,-40.9 843.5,-39.6 841.5,-42.4 843.8,-43.9 849.4,-45.1 853.3,-48.3 	"/>
	<polygon class="st2" points="657.6,-38.7 655.3,-41.4 657.9,-41.6 	"/>
	<polygon class="st2" points="873,-38.4 871.8,-42 872.8,-42.1 875.6,-39.9 	"/>
	<polygon class="st2" points="853.7,-35.7 849.4,-35.1 847.3,-36.1 847,-37.8 849.3,-38.3 853.9,-36.6 	"/>
	<polygon class="st2" points="760.9,-34 759.1,-34.6 759.2,-37.2 761.7,-34.5 	"/>
	<polygon class="st2" points="841.3,-32.2 835.8,-31.3 837.8,-34.7 841.9,-35.8 842.5,-35.6 	"/>
	<polygon class="st2" points="717.1,-7.7 720,-11.4 719.7,-8.3 	"/>
	<polygon class="st2" points="756.2,-4.7 756.1,-7.6 758.6,-7.5 758.7,-5.2 	"/>
	<polygon class="st2" points="832.5,122 829.9,121.8 830.3,119.1 832.9,120.9 	"/>
	<polygon class="st2" points="845,127.3 846.8,123.5 847.3,124.7 846.6,126.7 	"/>
	<polygon class="st2" points="868.8,150.8 864.3,151.5 862.1,150.3 849.4,134.5 846.9,133.3 846.8,132.6 848.9,131.4 850.9,128.6 
		851.9,129 853.2,134.3 863.5,147.6 867.4,148.8 	"/>
	<polygon class="st2" points="871.7,155.7 870.1,155.9 869.5,154.4 870.9,151.7 872.1,153.6 	"/>
	<polygon class="st2" points="865.7,156.6 863.4,155.6 865.8,153.8 	"/>
	<polygon class="st2" points="864.2,169.1 866.9,165.6 869.7,165.3 869,166.9 	"/>
	<polygon class="st2" points="860,172.2 857.6,172.6 857.7,170.7 859.2,169 861.7,168.8 861.4,170.6 	"/>
	<polygon class="st2" points="837.7,215.3 836.1,214.8 835.7,211.9 838.2,213.6 	"/>
	<polygon class="st2" points="871.9,218.1 869.9,216.7 870.8,214.7 873.4,213.7 	"/>
	<polygon class="st2" points="868,226.3 868,220.7 870,222.9 	"/>
	<polygon class="st2" points="892.6,241.8 894.6,238.4 894.8,241 	"/>
	<polygon class="st2" points="882.4,248.4 876.5,248 871.4,242.3 874.1,241.8 878.3,244.6 883.1,244.9 	"/>
	<polygon class="st2" points="897.7,250.9 896,249.9 895.7,247.8 897.7,246.9 899.2,250.3 	"/>
	<polygon class="st2" points="891.8,253.4 891,251.8 892.9,249.8 893.3,253.1 	"/>
	<polygon class="st2" points="903.8,262.2 903.7,260 902.3,258.3 902.2,256.4 905.7,259 905.1,261.6 	"/>
	<polygon class="st2" points="874.2,266.5 873.4,266.6 873.2,259.1 877.5,254.5 879.7,254.2 881.5,257.2 881,259.2 876.8,261.6 	"/>
	<polygon class="st2" points="897,267.8 895.5,268 894.6,263.3 895.8,262 897.4,264.3 	"/>
	<polygon class="st2" points="893.4,271.3 890.8,271.7 893.1,268.5 894,269.5 	"/>
	<polygon class="st2" points="904.9,288.6 903.4,288.1 904.3,283.8 905.6,283.6 	"/>
	<polygon class="st2" points="915.1,294.4 913.8,294.4 909,289.2 909.9,288.3 913.7,290.7 	"/>
	<polygon class="st2" points="906.8,306.7 904.3,305.9 906.8,302.8 908.5,304.1 	"/>
	<polygon class="st2" points="898.8,307.3 896.7,304.8 900.3,304.4 900.7,306.5 	"/>
	<polygon class="st2" points="889.1,313 885.5,311.9 885.1,310.4 886.8,309.6 889.3,312 	"/>
	<polygon class="st2" points="944.2,362.3 941.6,362.2 942,360.8 944.4,361.3 	"/>
	<polygon class="st2" points="1011.9,447.5 1011.5,443.5 1013.4,444.3 1013.7,446.2 	"/>
	<polygon class="st2" points="984.2,455.6 979.6,452.2 979.9,449.9 984.4,454 	"/>
	<polygon class="st2" points="1001.2,460.8 998.9,461.1 995.2,457.7 994.8,454.1 993,451.3 996.5,450.2 997.7,453.3 1000.9,457.8 	
		"/>
	<polygon class="st2" points="1141.9,582.8 1146,579.2 1149.4,578 1150.9,580.1 	"/>
	<polygon class="st2" points="2177.4,624 2178.5,625.8 2177.7,631.8 2176.3,629.7 2176.3,628 2176.3,625.1 	"/>
	<polygon class="st2" points="2183.2,635.5 2178,621.3 2182.1,627.3 	"/>
	<polygon class="st2" points="2187.1,640.3 2185.6,640 2185,632.8 	"/>
	<polygon class="st2" points="2183.3,642.6 2181.6,641 2180,632.9 2180.9,632.9 	"/>
	<polygon class="st2" points="2178.1,646.7 2179.3,647.4 2179.7,653.9 2178.5,653.5 2177.7,649.4 	"/>
	<polygon class="st2" points="2218.8,658.4 2219.4,657.6 2222,657.2 2223,656.5 2226,654.4 2233.8,646 2243.5,637.7 2244.3,637.8 
		2239.7,649.2 2237.8,649.8 2236.6,656.9 	"/>
	<polygon class="st2" points="2204.5,661.4 2203.1,661.4 2202.8,660.4 2215.7,658.6 2209.5,660.9 	"/>
	<polygon class="st2" points="2180,660.1 2185.3,659.7 2187.6,660.7 2188.1,662.2 2181,661.5 	"/>
	<polygon class="st2" points="1843,816.4 1844.9,818.1 1845.8,822.6 1845.4,823.9 1844.4,823.5 	"/>
	<polygon class="st2" points="1382.9,849.5 1384.7,854.1 1384.8,855.7 1380.6,859.3 1377.8,864.8 1374.6,865.1 1373.3,872.5 
		1369.7,875.4 1368.1,875 1367.1,874.8 1370.3,872.3 1368.5,868.8 1365.2,857.4 1365,854.1 1363.8,853 1363.6,850.4 1369.3,848 
		1373.7,846.6 1378.9,845.4 1382.1,847.7 1380.3,847.3 1379.2,848.3 1376.3,848.2 1374.5,848.7 1373.9,849.9 1374.1,850.6 
		1380.6,849.3 	"/>
	<polygon class="st2" points="1295.9,927 1296.6,922 1300.3,918.6 1304,927 1303.3,932.1 1299.6,937.2 1295.9,933.8 	"/>
	<polygon class="st2" points="1180.1,-85.9 1181.3,-84.5 1184.1,-87.8 1182.7,-96.5 1182.4,-108.7 1178.1,-123.1 1177.8,-123.8 
		1176,-134.4 1173.4,-136.7 1171.4,-141.9 1173.2,-149.1 1177.6,-154.2 1176.3,-155.3 1175.7,-158.9 1181.4,-173.8 1182.9,-184.4 
		1182.6,-186.5 1177.7,-221 1178.6,-228 1176.6,-243.5 1189.5,-242.2 1193.5,-227 1207.6,-191.8 1214.9,-189.3 1220.1,-190.8 
		1220.8,-186.6 1223.2,-186.9 1224.1,-189.3 1219.4,-196.3 1216.7,-204.2 1212.9,-213.2 1210.2,-222.2 1205.2,-238.4 1205.6,-242.8 
		2442.8,-244.7 2427,460.3 2418.9,463.1 2415.8,463 2415.4,463 2395.8,475.9 2394.9,478.6 2393.7,481.1 2375.9,496 2372.3,500.5 
		2367.1,504.9 2357.7,517 2351.1,523.7 2349.1,522.2 2347.5,524.1 2346.8,526.9 2335.3,536.5 2325.7,541.1 2325.1,542.6 
		2322.9,547.1 2312.9,551.7 2311.3,550.7 2315.6,547.1 2305.7,547.1 2303,547.1 2304.9,553.6 2304.5,554.2 2306.1,554.1 
		2303.2,557.5 2301.6,560.9 2301.8,562.3 2309.5,554.1 2310.4,555.2 2308.7,559.3 2305.1,564 2299.9,568.5 2298,568.6 2297,570.7 
		2297.8,573.4 2293.1,577.8 2287.7,584.8 2285.3,586.6 2277.9,597.6 2273.4,604.2 2269.3,605.5 2255.6,621.5 2248.7,632.5 
		2245.8,635.3 2243.2,635.2 2242.2,633.5 2244.4,628.1 2247.2,627.3 2249,625.7 2250.1,624 2252.2,621 2264.8,607.1 2270.7,602.6 
		2281.2,591.8 2283.3,586.9 2280.6,586.6 2275,590.6 2274.4,593.3 2271.6,598.3 2271.3,598.8 2265.8,603 2264.3,605.3 2260.3,609.1 
		2255,612.1 2246.2,619 2239.6,622.2 2234.6,623.4 2233.3,623.8 2229.9,622.5 2223.8,621.6 2223.7,622.9 2227.8,624.5 2230.5,624.6 
		2229.3,626.2 2220.1,625.6 2215.2,629.4 2213.8,629.3 2213.2,631.7 2210.4,632.4 2208.7,645.3 2207.4,649.2 2205.9,650.6 
		2204.7,647.4 2204.9,637.1 2202.5,633.7 2200.4,640.1 2201.1,648 2200.7,652.4 2198.5,659.3 2195.9,649.5 2195.9,640.9 
		2193.9,643.7 2192.3,643.9 2190.3,641.2 2188.1,636.1 2187.4,631.6 2184.9,629 2182.4,616.5 2178.1,611.6 2176.3,614.1 
		2176.2,619.1 2174.6,620.9 2175.9,629.8 2177.1,644.5 2176.1,650.2 2176.6,655.5 2174.4,659.8 2170.8,663.7 2166,664.9 
		2160.5,664.3 2154.2,665.8 2147,666.3 2141.5,666.1 2137.3,666.6 2121.8,665.6 2108.6,666.6 2107.6,666.4 2097,665.1 2094.2,665.2 
		2086.4,665.4 2079.5,666.6 2076.7,668.4 2076.8,665.2 2077.3,661.2 2076.7,660.4 2076.7,661.3 2075.2,661.9 2071.3,668.3 
		2068.7,669.6 2058.6,671.9 2057.2,671.3 2052.4,673.2 2049.6,673.2 2040.9,676.1 2040.2,677.4 2034.7,679.2 2033.5,676.5 
		2032.2,677.2 2033,680.2 2020.7,683.4 2011,689.1 2008.5,689.7 2008,688.4 2010.4,680.9 2007.9,683.3 2005.1,685.7 2004.9,687.7 
		2004.7,692.1 1999.6,693.8 1988.7,699.8 1975.5,709.5 1974.2,708.1 1970.3,710.9 1971,713.4 1970.3,716 1967.8,721.1 1963.4,722.7 
		1963.8,723.8 1962.7,724.6 1956.3,735.1 1952.5,743.8 1942.2,754.5 1938.8,755.5 1933.5,755.4 1926.3,753.9 1920.7,751 
		1920.8,752.5 1926.1,756.5 1937.8,760.7 1944.8,756.2 1950.7,748.2 1952.1,749.5 1946.5,756.2 1942.7,763.6 1940.1,770.8 
		1934.5,786.7 1926.2,798.1 1918.8,806 1912.7,811.1 1900.4,820.2 1897.9,821.5 1881,830 1876.2,834.2 1874,833.4 1864.9,841.4 
		1856.6,837.8 1853.9,834.1 1852.2,830.2 1851.8,826.6 1852.5,822.9 1854,820.8 1854.6,819.9 1857.7,810.5 1855.5,799.7 
		1852.6,790.6 1840.7,773.7 1833.3,769.5 1828.2,764.1 1823.7,763.7 1826.3,766.2 1829,772.5 1835.3,774.7 1846.5,790.9 1849,796.2 
		1850.3,802.4 1854.2,808.6 1850.1,823.7 1849.5,823.4 1849.3,819 1849.5,817.5 1850.3,812.9 1847.5,798.7 1844.7,794.1 
		1842.9,792.4 1842.4,793.9 1841.9,795 1844.2,797.1 1847.1,803.5 1846.4,809.6 1842.8,806.8 1841,803.5 1840.2,795.4 1838.3,790.8 
		1837,783.8 1835.5,782.4 1834.4,785.9 1835.1,790.6 1837.1,795.3 1836.4,797.5 1831.9,795.6 1828.6,795.4 1823.4,798 1817.4,790.7 
		1811.9,790.9 1807.1,792.8 1808.9,793.9 1814.3,792.9 1816,793.9 1821.9,801.2 1833.9,801.5 1837.1,804.4 1836.7,809.5 
		1839.2,811.6 1840.7,814.3 1841.1,820.5 1838,818.1 1832.8,819.1 1829.4,814.8 1825.4,811.7 1822.4,811.4 1815.7,813.2 1813,815.8 
		1815.6,816.5 1824,815.8 1825.3,817.1 1828.1,817.9 1830.7,819.8 1835.4,825.7 1837.8,827.1 1839.9,831.9 1844.3,838.2 
		1846.1,836.5 1842.9,828.1 1847.3,829.9 1848.3,832.6 1850.8,839.9 1853.5,841.8 1860.9,841.8 1860.7,843.2 1853.7,845 
		1841.9,845.4 1822.5,852.4 1815.2,854.4 1801.4,858.3 1794.2,861.7 1785.4,862.7 1779.9,865.8 1770,868.3 1752,874.8 1749,877.7 
		1744.2,878.9 1735,879 1725.1,877.9 1706.5,874 1695.8,869.5 1694.4,869.3 1689,868.5 1685.5,866.7 1668.5,868 1666,873.5 
		1651.4,871.7 1651.5,870.3 1657.6,869.6 1659.1,868.3 1654.1,864.4 1650.7,862.7 1645.7,860.4 1642,860.1 1641.9,862.6 
		1644.5,865.9 1645.6,868.7 1647.5,869.4 1647.9,870.9 1644.9,872.5 1641.5,872.2 1633.6,868 1626.3,866.7 1623.1,865 1621.9,861.9 
		1619.5,862.3 1609.6,856.5 1606.3,856.2 1597,848.2 1594.8,846.5 1583.2,841.9 1578.6,843.6 1572.1,839.3 1562.8,835.5 
		1558.1,832.3 1547.2,827.3 1537.5,821.8 1533.9,821.3 1531.1,818.8 1530.1,819 1526.9,819.7 1524.6,816.2 1520.7,816.9 
		1517.9,814.8 1506,810.1 1502.9,808.1 1494.9,807.4 1476.4,801.9 1468.1,801.4 1456.4,801.6 1449,800.1 1444.4,800.7 1438.6,799.7 
		1438,799.8 1428,801.5 1424.1,803.2 1422.7,801.8 1421.5,798.7 1422.7,792 1421.1,791.9 1419.1,799.1 1420,803 1406.9,804.1 
		1397.9,802.7 1394.8,800.8 1388.3,797 1353.3,767.3 1352.2,764.2 1355.7,764.4 1357.2,763.9 1357.6,762.3 1355,759.2 1349.4,757.6 
		1351.4,762.6 1350.1,763.3 1346.9,759 1343.6,756.6 1339.4,751.8 1337,748.2 1337.9,746.2 1339.8,746.6 1340.9,745 1338.7,742.9 
		1337.1,742.2 1335.1,747.6 1333.3,747.5 1323.9,737.9 1320.5,733.2 1310,723.2 1304.7,719.1 1301.1,717.6 1296.9,712.2 
		1286.2,702.9 1270.2,689 1263,683.3 1249,674.2 1252,672.7 1255.3,673.8 1264.1,672.1 1266.7,668.1 1268,665.6 1269.1,659.8 
		1271.9,653.8 1271.4,652 1272.8,647.1 1277.9,635.6 1274.7,636.6 1269.8,641.6 1269.4,645.2 1266.5,644.9 1263.5,654.5 
		1258.5,659.4 1243.1,666.8 1244.7,669.8 1243.1,670.5 1225.7,658.2 1223.9,655.6 1221.9,655.4 1217.3,652.5 1210.6,646.2 
		1207.6,645.8 1205,646.7 1202.5,645.7 1200.5,643 1199.9,642.3 1184.1,637.9 1170.5,629.9 1162.4,621.2 1154.8,616.4 1151.5,615.2 
		1150.1,612.6 1151.7,605.3 1148.6,592.7 1145.6,590.3 1145.9,588.4 1147.2,587.2 1147.3,585.8 1149.2,583.9 1156.9,581.6 
		1161.1,581.9 1167.2,586.8 1169.8,581.7 1166.2,579.7 1163.7,579.3 1162.4,577.9 1159.5,578 1155.4,579.1 1150.6,577.2 
		1145.9,577.8 1139.8,581.8 1136.4,585.6 1134.6,588.7 1132.3,590.5 1131.8,590.2 1131.1,590.2 1130.3,590.2 1128.5,590.1 
		1127.7,590.8 1127.4,591 1127.1,592.5 1126.4,592.4 1126.1,592.3 1125,592.5 1125,594.8 1127.4,599.3 1132.2,605.1 1137.6,608.2 
		1146.2,611.8 1149.4,614.9 1149.2,615.9 1148.6,615.7 1129.8,609.7 1127.8,610.1 1111.9,617.3 1110,621.2 1113.7,629.1 
		1112.9,630.8 1109.5,631.9 1103.6,632.3 1099.4,632.1 1090.1,631.8 1068.1,638.2 1061,638.5 1057.5,641.5 1043,646.1 1036.2,642.8 
		1035.6,642 1029.2,634.3 1021,621.9 1012.1,621.7 1006.6,619.9 1004.9,621.8 1002.8,627.4 1000.5,629.2 984.3,634.4 980.9,636.9 
		975.5,637.3 970.8,636.7 966.1,638.2 961.6,636.7 959.3,638.2 948.6,640.1 947.8,640.3 939.6,640.3 932.7,637.7 928.5,638 
		924.4,639.2 921.9,641.7 920.4,641.4 916.7,640.6 902.3,637.3 898.6,634.2 891.9,634.8 888.8,632.7 887.8,630.9 881.1,627 
		878.8,627.5 868.9,636.1 866.3,636.4 865.8,640 866.3,642.6 865,644.5 860.9,642.6 860.2,640.6 861.5,638.5 860.2,637.7 
		852.6,641.3 850,644 843.1,641.8 835,651.2 828.2,650.9 819.8,649.2 816.3,646.8 813.1,646.1 811.9,645.9 807.2,647.5 798.5,655 
		795.3,656.2 792.3,657.4 791.2,652.9 789.1,652.9 785.1,647 784.4,644.6 785,643 787.5,641.2 789.7,637.2 792,635.2 792.3,630.8 
		793.8,626.5 791.8,624.9 790,621.9 788.6,619.4 786,617.1 785.5,618 784.3,616 783.6,611.2 785.6,604.8 788.6,604.5 793.2,594.2 
		793.6,589.2 795.4,586.2 795.4,582.5 807.8,579.8 808.7,578.3 807.4,574.8 805.2,575.4 801.4,576.6 795.8,574.7 793.5,574.8 
		791.6,572.8 789,572.3 785.3,567.8 784.3,564.6 781.2,564.9 779.5,561.6 781.6,559.8 780.5,558.4 780.8,557.3 792.7,547.1 
		794.2,537.9 793,529.2 794.1,527.4 792.8,522.5 794.2,518.5 793.5,514.9 794.8,508 795.7,506.6 798.5,501.8 808.4,505.4 
		810.2,508.9 809.7,509 813,512.6 816.4,514.1 820.3,521 823.4,523.1 824.6,525.5 827.1,526.4 830.9,531.4 834.7,547.1 830.9,549.6 
		832.3,555.6 831.8,558.4 832.4,560.6 837,556.5 838.9,555.7 851.4,560.6 861,561.5 866.8,560.1 867.1,559.1 867.6,557.6 
		867.3,552.2 867.9,549.5 871.8,547.1 876,542 880.5,540.5 882.2,542 885.6,541.7 894.2,535 899.4,530.9 905.6,530.4 912.8,537 
		918.9,538.9 919.9,537 924.2,536.3 931,529.6 932.3,525.2 938.4,523.2 941.5,520.5 943.4,521.5 949.1,520.6 949.9,520.5 
		951.7,523.9 953.9,521.2 957.9,520.3 963.4,511.2 966.6,514.1 969.7,512.6 975.4,512.2 972.1,508 971.4,508.2 967.9,504.9 
		962.3,502.9 957.6,497.6 959.7,496.5 958.3,494.3 955.2,494.9 952.8,496.2 951.4,496.1 952,494.4 953.7,493.7 953.8,490.7 
		955.3,489.1 955.1,486.8 963.5,481.9 964.2,483.2 961.3,486.6 964.1,487.2 966.2,484.9 969.5,483.4 971.4,487.5 971.1,490.3 
		967.5,487.4 966.9,489.2 963.7,490.3 960.6,491.4 961.2,493.1 965.2,494.7 972.1,493.2 973.4,495.3 978.6,494.3 978.2,491.1 
		981.7,491.4 983.6,490.5 983.3,488.8 977.7,487.2 976.7,485.7 977.5,483.9 983,484.3 984.7,482.8 984.6,482.1 975.7,479.2 
		973,476.7 972,475 968.4,469.2 963.2,465.4 958.5,463.6 954.5,464.7 954.6,461.9 957.3,460.5 958.5,458.2 962.8,459.7 966.6,463.8 
		970,464.6 972.8,463.1 975.7,458.9 976.9,459.8 975.7,463.5 977.9,466.2 981.7,464.1 982.4,466.4 982.6,466.9 987.5,466.1 
		988.3,462 991.2,461.2 995.1,465.3 997.5,465.2 999.7,470.6 999.4,476 1000.6,477.5 1002.3,475.1 1007.5,476.1 1010.6,475.7 
		1010.5,475 1003.6,471.4 1004.2,468.3 1006.7,467.7 1006.9,465.4 1004.7,464.1 1004.6,463.1 1007.6,462.4 1009.5,462 1009.7,461.5 
		1010.2,460.3 1003.1,455.6 1004.2,451.5 1008.5,450 1013.4,454.3 1013.9,457.2 1012.5,460 1013.4,460.7 1018.8,459.7 1022,457.3 
		1020.6,455.2 1021.1,453.7 1025.5,452.9 1028.5,451.3 1031.2,451.6 1031.1,451 1036,450 1036.1,448.7 1031.6,446.9 1028.3,445.6 
		1020.4,449.6 1017.9,449.1 1016.3,450.7 1015,449.4 1018.6,444.7 1016.2,440.8 1017,439.4 1019.7,438.3 1022.3,439.6 1025.3,436.2 
		1025.4,436.9 1028.8,437.3 1031.8,434.4 1028.2,431.8 1017,435.4 1014.8,434.3 1008.9,431.3 1003.2,433.3 1001.8,432 1004.7,429.9 
		1005.7,424.4 1004.2,417.6 999.1,415.9 993,416.9 992.7,419.6 988.6,420.5 986.6,420.1 985.5,421.7 982.8,419.7 984.2,417.8 
		987.9,416.7 985.2,414.3 986.2,413 986.6,413 988.9,412.7 990.6,408.9 990.4,402.6 991.5,401.7 1002.1,386.9 1006.2,384.5 
		1024.5,359.1 1026.3,358.9 1030.7,362.3 1035.6,361.2 1037.3,362.2 1037.9,362.6 1041.6,361.6 1045,362.7 1048.1,362.1 
		1049.2,359.9 1047.4,358.3 1039.5,358.5 1037.9,353.6 1043.4,348.7 1049.2,346.1 1052.2,342 1053.4,341.8 1055.7,341.3 
		1057.8,342.6 1059.7,341.7 1059.7,338.1 1063.8,338.7 1065.4,341.6 1064.1,345.4 1066.7,348.6 1071.5,348.7 1073.6,346.3 
		1076.3,345.6 1076.3,346.1 1081.4,343.9 1082.3,349.2 1087.8,352.6 1096.5,351.7 1099,347.2 1101.5,342.3 1105.7,338.9 
		1111.6,337.6 1113.7,336.6 1114.9,336 1114.8,335.4 1108.2,334 1104,334.6 1098.9,337.8 1097.2,341.5 1093.1,344.3 1087.8,343.6 
		1086.6,341.4 1094.9,338.4 1097,336.3 1096.1,333.5 1091.1,329.8 1082.3,329.6 1081,329.5 1073.7,331.7 1069.5,330.8 1066.6,331.4 
		1057.2,328.3 1053.7,324.6 1041.2,326.9 1035,332.6 1030.9,333.5 1030.2,334.9 1021.9,342 1019,347.1 1018.7,347.2 1011.8,349.7 
		1007.3,358.9 1003.6,361.6 1000.5,365.8 992.6,370 984.2,378.2 979.8,378.9 976.9,381.5 974.7,380.3 965,381.3 961.1,381.8 
		952.8,381.6 948.8,377.4 945.2,375.3 941.7,374.9 937.9,377.3 936.5,374.5 940.1,372.7 942.4,367.7 945,367.1 946.5,363.6 
		949.7,363 954.9,352.3 956.5,352.8 957.5,355 959.4,351.9 963.4,347.7 963.6,343.9 967.3,344.7 972.8,342.9 975,345 976.9,344.7 
		978.2,341 980,340.6 982.8,343.6 986.5,342.7 989.6,341.3 989,337.9 989.8,335.9 994.1,334.7 993.4,333.7 991.9,331.6 985.2,335.1 
		980.7,329.5 978,330 978.1,330.5 974.6,329.5 971.2,332.6 968.9,332 965.7,332.5 963.8,334.5 965,340.3 963.4,340.5 956.4,334.6 
		954.9,332.4 951.5,327.1 955.2,317.2 957.6,315.5 956.3,308.3 957.1,299.2 959.7,298 959.4,307.1 963.3,303.6 963.5,292.8 
		966.2,289.5 965.2,286.4 966.6,280.8 972.2,267.9 973.3,267.7 975.1,269.8 976.5,269.8 978.6,266.8 983.5,265.1 989.2,258.3 
		993.2,260 1002,256.8 1007,254.1 1011.1,255.5 1014.5,254.7 1015.8,255.4 1017.5,254.4 1017,251.9 1015.5,251.6 1012.1,248.2 
		1011.3,248.8 1004.1,249.1 1003.5,247.6 1009,245.8 1012.3,242.5 1015.5,234 1018.9,230.4 1017.1,228.3 1011,229.5 1005.9,229.3 
		1003.4,232 997.4,235.4 994.1,236.3 993.6,237.5 996.3,241.3 992.9,242.4 989.7,240.4 987.8,242.6 986.2,246.5 984.5,247.5 
		980.7,254.9 978.3,256.2 977.9,254 980.9,249.3 982.4,247 980.2,244.4 976.9,247.2 973.6,247.6 967.2,258.6 960.3,258.5 
		954.7,262.3 952.4,253.7 956.1,247.5 959.1,239.5 959,235.5 957.5,235.7 953.8,240 954.1,243.1 954.2,243.9 949.6,248.8 947.9,254 
		947.1,258.9 948.6,264 945,266.1 941.1,270.8 942.3,274.7 941.3,289.2 939.4,290.6 936.3,290.4 935.1,290.1 935.5,286.8 933,287.6 
		930.2,290.3 923.3,296.7 921.5,296.3 923.8,292.3 927.1,289.8 927.4,287.6 921.6,291.3 919.2,291.2 916.8,289.5 915.7,287.4 
		915,287.5 912.6,284.6 912.7,277.2 910,276.9 910.4,273 909.5,272.8 903.7,281.4 902.7,281.8 902.7,280.9 902.5,277.8 911,260 
		912.3,255.7 906.6,255.5 905.8,251 906.5,249.8 908.8,249.5 909.1,247.7 907.4,245.7 902.7,248.1 902.5,246 906.1,242 902.7,239.8 
		902.3,237.7 904.7,234.5 905,234.1 905.8,230.9 904.2,231 898.8,237.5 896.2,235.7 892.1,238 888.8,242.8 887.2,243 884.4,241.4 
		882.1,242.8 876.9,233.3 878.4,229.2 875.3,227.9 876.9,224.4 876.8,216.5 880.8,213 879.9,211.3 879.8,211.1 874.1,212.4 
		872.3,207.7 869.1,202.4 869.6,199.6 854.5,189.4 854.2,184.3 856.7,184.9 859,189.5 862.2,192.2 871.8,197.5 871.7,196.9 
		873.7,196.5 883.4,194.4 883.7,193 881.2,190.7 875.6,193.7 875,192.4 880.1,180.3 881.5,179 888.8,178.6 886,175.5 879.8,173.4 
		881.9,169.2 884.5,164.4 863.3,182.3 861.8,181.8 862.2,180.5 862.9,177.3 861.1,173.9 867.3,170.9 871.4,167.7 875.5,158.3 
		878.8,157.7 880.2,150.7 880.5,144.2 882.5,142.6 887.5,140.6 888,137.5 886.9,134.2 881.1,132.3 876.6,129 874.9,128.8 
		873.1,130.5 870.6,130.9 869.1,129.4 865,130 860.9,133.5 856.1,131.3 856,130.7 860.4,129 859.1,124.6 862.6,122.9 862.9,119.5 
		858.6,120.7 854.7,121.8 856,119.4 861.6,115.1 864.5,106.4 863.9,104.2 868.5,101 867.5,100 864.2,100.2 860.5,104 859.9,109.2 
		857.5,112.3 852.5,111.7 852.3,110 852.7,108.5 854.4,107.8 855.8,107.1 855.9,105.5 855.1,104 854.5,104.1 853.6,105.5 
		852.7,107.5 851.8,107.8 849.4,107.8 847.8,107.5 846.9,109.4 846.8,112.4 845,113.8 838.8,111.1 836.7,108.5 833.5,110.3 
		821.3,121.4 821.4,122.2 827.9,124.3 828,125 824.6,126.2 814.7,124.3 808,128.9 806.3,128.9 805.4,128.9 797.2,123.4 798.9,122 
		807.9,125 810,124.4 811.3,120.6 807.5,118.4 805.4,120 802.3,118 803.9,115.5 803.3,110.9 800.1,110.3 797.6,108.3 794.9,108.1 
		793.3,107.9 783.3,111.1 779.8,110.2 776.4,111.3 776.6,112.8 788.4,120.6 793.3,124.8 793,125.8 785.8,122 778.4,116.8 771.6,115 
		768.8,114.6 764.3,114.1 760.2,110.4 741.8,114.5 736.6,114.5 731.5,110.8 721.3,110.2 721,110.9 715.1,113 708.6,110.8 
		701.4,111.3 691,109.2 682.8,105.6 677.4,104.8 660.6,97.7 655.2,97.3 642.7,96.4 634.8,98.2 630.6,101.5 630.8,107.7 629.5,111 
		624.9,113.8 618.3,115.9 615.3,115.6 609.7,111.5 603,109.7 598.4,110 586,110.8 585.8,109.8 589.6,108 601,107 598,104.9 
		592.9,103.9 589.1,105.2 579.9,110.6 571.6,120.7 571,123.4 571.5,124.3 574.3,129.5 572.7,133.5 568.6,139 569.3,138.9 
		570.6,142.7 562.9,144.9 555.5,141.9 550.4,144 544.2,146.6 537.9,146.4 531.1,151.4 526.3,146.9 523.5,146.4 521.2,144 
		517.4,143.1 516,141.3 512.7,141.3 509.6,138.5 503.6,137.4 503.4,132.9 499.6,123.3 499.4,122.9 496.3,118.6 489.1,102.1 
		489.9,97.3 487.2,97 486.4,100.2 484.2,100.6 482.6,99.1 479.8,89.6 474.7,79.9 472.3,65.4 474.6,64.1 479,66.7 483.1,64.4 
		486.1,64.5 489.4,60 491.8,59.6 494.1,54.8 498.8,52.4 501.7,47.2 504,46.6 507,47.7 514.2,42.4 517.2,42.2 520.5,43.4 524.1,40.1 
		526.6,42.6 527.7,43.6 525.1,44.3 525.1,46.1 530.9,51.7 533.2,52.1 528.7,45.7 530.5,45.2 537.7,53 550.1,56 554.6,59.4 561.2,61 
		563.1,60.8 567.3,60.4 570.2,61.5 575.2,57.5 580.4,48 583.2,47.9 586.9,49.6 592.6,48.2 597.1,44.4 601.9,32.9 605,29.3 
		608.3,28.8 614,30.3 614.7,30.5 619.9,30.4 626.1,28.1 628.3,28.3 628.9,29.4 627,32.1 634.5,32.9 630.4,21.9 634.1,22.3 
		637.7,19.8 638.1,18.3 643.4,21.1 644.8,27.3 641.4,33.1 641.4,35.2 641.4,36.1 643.2,37.7 646,37.2 647.7,35.6 645.6,32.8 
		647.5,30.4 650.2,30 652.4,31.3 653.9,36 650.5,39 650.5,42.3 654.3,44.7 659.7,41.5 661.5,41.6 664.4,44 667.5,43.7 668.5,43.6 
		670.9,40.7 673.3,27.6 670.5,22.5 670.6,16.8 667.4,7.9 668.4,3 670.4,0.2 673.4,-4 677.8,-8.1 684.4,-6.2 687.6,-4.6 689.5,-3.5 
		702.1,-1.5 702.4,-0.4 701.8,0.2 695,7.5 692.1,14.6 693.6,19.8 689.5,20.1 688.1,25.4 684.2,30.4 687.7,35.5 689.6,34.2 
		692.4,38.3 693.4,39.8 693.9,44.4 696.7,44.5 699,48.6 700.4,47.9 700.9,41.4 698.1,23.5 698.6,22.1 701,23.1 701.8,20.7 
		707.1,21.7 711.5,24.8 715.9,24.7 718.7,28.5 718.3,30.8 716.8,39.6 717.8,41.2 719.3,40.4 721.4,31.4 720.5,24.3 718.3,21.8 
		709.9,20.5 708.6,18.9 711.3,6.5 715.6,1.3 716.9,0.2 720.8,-3 722.6,-4.5 730.1,-4.3 735.2,-1 736,0.2 737.3,2.2 738.1,8.7 
		742.2,8.3 744.2,4.6 747.3,3.9 751.7,0.2 753.9,-1.6 757.1,-1.9 759.7,0.2 759.8,0.2 764.5,-4.7 773.1,-9.3 773.4,-9.5 
		775.6,-12.6 755.6,-14.2 754.9,-15.9 756.2,-18 764.8,-21.2 766,-18.7 768.6,-19.4 771.1,-27.7 780.2,-31.9 782.9,-37.2 
		784.5,-38.3 787.6,-40.6 790.1,-39.6 790.6,-37.1 787.7,-33.9 788.1,-31.7 792.9,-35 795.2,-31.7 798.6,-29.5 795.1,-28.7 
		793.7,-24.1 798.1,-24.4 798.2,-23.8 795.1,-20.3 794.1,-16.5 790,-15.1 786.6,-12.2 784.1,-11.4 783.4,-10 785.5,-9.2 788.7,-9.6 
		788.8,-9.6 790.8,-11.8 794,-11.5 796.9,-15.2 799.1,-14 797.8,-9.2 796.5,-7.9 800.3,-5.7 800.3,-1.6 800.9,0.2 801.4,2 
		806.5,5.9 810.4,5.2 817,10.1 822.2,18.4 823.5,18.6 821.9,13.3 821.1,12 814.1,1.8 813.5,0.2 812.8,-1.6 815.3,-6.6 814.6,-10.2 
		818.2,-13.8 819.5,-16.5 824.3,-13.9 825.9,-14.1 824.7,-20.1 832.7,-26.2 838.9,-24.4 842.3,-24.6 852.1,-22.3 859.8,-24.6 
		865.4,-28.1 873.6,-28.2 875,-30.2 876.4,-29.9 882.2,-32.2 883.8,-29.8 888.3,-28.3 890.7,-24 896.3,-24.8 908.6,-20.9 
		909.1,-16.3 910,-16.2 916.8,-15.7 918.5,-13.9 919.6,-15.1 923.7,-15.8 927,-11.9 928.9,-12.1 931.8,-19.1 936.4,-16.4 
		937.7,-16.4 939.7,-18.6 951.9,-17.4 960.7,-13.1 969.3,-14.1 973.8,-10.8 977.6,-11.5 985,-12.9 1004.2,-13.8 1006.2,-10.7 
		1008,-12.5 1010.8,-14.7 1011,-18 1012.7,-21.1 1010.6,-31 1005.2,-33.1 1002.7,-34.1 1001.5,-38.3 1003.9,-42.8 1012,-48.7 
		1014.3,-52.4 1013.3,-60.1 1017.1,-62.7 1021.5,-71.2 1024.1,-80.2 1026.1,-82.4 1029.3,-92.9 1028.6,-92.8 1027.5,-96.6 
		1026,-106.4 1022.7,-111.1 1022,-110.4 1016.6,-111.9 1012.3,-111.5 1005.8,-110.8 1004,-109.2 1003.3,-103.4 1000.6,-100.4 
		1001.7,-94.7 1000.9,-90.9 998.7,-92 994.2,-85.4 987.7,-80.6 978.4,-70.9 962.3,-60 957.4,-58.6 943.6,-57.7 940.8,-56.4 
		937.9,-57.4 934.2,-57.2 932,-58.8 930.6,-59.8 929.8,-63.4 922.5,-64.2 918.3,-63.6 915.7,-65.5 909.8,-64.6 907.3,-66 
		902.9,-64.4 899.6,-66 896.1,-69.5 889.1,-72.9 887,-73 883.1,-76.3 873.7,-80.7 871.6,-84.6 867.9,-91.6 864.3,-90.9 863.5,-86 
		858.8,-86 854.8,-84.9 853.3,-81.4 851.2,-83.1 849.2,-83.2 846.5,-85.8 838.4,-86.6 831.4,-85.8 827.4,-89.1 828.8,-91.5 
		827.6,-94.7 830.5,-95.1 832.9,-93.6 836.4,-91.2 840.1,-91.4 842.8,-93.4 846.8,-99.8 851.6,-97.9 854.2,-100.2 851.9,-102.1 
		839,-105.4 836.6,-104.6 832,-100.7 830.3,-101.5 832.7,-105.8 838.3,-111.2 841.2,-122.9 845.3,-126.1 847,-130.1 849.3,-130.9 
		851.5,-129.8 855.1,-131.3 858,-132.5 861.8,-135.7 861.8,-140.4 860.7,-142.4 864.8,-144.9 868.1,-150.2 870.3,-149.6 
		870.6,-146.9 873,-146.4 875.9,-150.3 877.4,-155.6 876.2,-159.2 877.2,-161.1 881.2,-162.5 886.2,-163.1 896.3,-167.9 
		898.7,-170.1 903.7,-170.2 905.2,-170.3 918.2,-176.1 925.4,-180 933.4,-188.7 938.6,-192.1 949.9,-200.7 951.4,-204.1 
		954.2,-204.3 957.9,-208.4 958,-207.9 964.3,-208.4 967.3,-210.6 969.8,-217.6 969.1,-217.5 968.3,-219.7 970.4,-219.4 
		975.7,-209.7 978.6,-211.3 973.7,-220 979.2,-222.8 982.4,-228.5 989.9,-227.6 990,-226.9 1012,-232.1 1014.5,-231 1015.6,-231.7 
		1023.3,-236.4 1030.3,-244.1 1013.3,-240.5 1009.4,-239.3 1005.8,-240.2 1001.6,-243.5 978.4,-244 972.9,-243.5 969.9,-240.1 
		968.7,-241.4 918.8,-241.4 918.4,-242 912.5,-234.7 910,-234.3 908.6,-235.6 906,-234.4 903.1,-238.1 902.2,-239.2 898.3,-238.8 
		897,-241.2 893.9,-239.5 1086.8,-243.6 1087.7,-242.7 1094.5,-244.2 1141.6,-244.1 1146.6,-239.1 1148.5,-236.4 1152.7,-237.2 
		1153.3,-233.5 1150.7,-225.9 1155,-219.5 1156.1,-212.5 1154.4,-206.1 1156.9,-191.3 1154.5,-178.3 1153.2,-171.5 1154.3,-162.6 
		1158.2,-159.3 1158.5,-153.8 1161.4,-150 1160.7,-147.2 1163,-143.1 1167.6,-135 1167.9,-128.8 1176.6,-110.9 1177,-98.7 
		1177.7,-88.5 	"/>
</g>
<g>
	<text transform="matrix(1 0 0 1 973.0767 582.0918)" class="st3 st4 st5">Kleifarvatn</text>
	<text transform="matrix(1 0 0 1 886.8916 604.1055)" class="st3 st4 st5">Seltn Geothermal Area</text>
	<circle class="st6" cx="968.4" cy="583.7" r="3"/>
	<circle class="st6" cx="951.3" cy="600.5" r="3"/>
</g>
<g id="trail-path" class="st7">
	<path class="st8" d="M1301.7,362.3l-85.5,70.2l-34.2-82.9l-50-107.8c0,0-59.2-5.3-59.2,0s-5.3,116.9-5.3,118.9
		s-66.9,116.8-66.9,116.8l-46.3,56.3l-89.7,7.9l-50.1,22.4c0,0,0.4,4.3,0.5,16.6s24.3,36,24.3,36l90.1-12.6h84.2l77.5,40.2
		l101.3-28.9l84.2-1.3l61.8,65.8l36.8,42.8c0,0,94.7-21.8,101.3-21.8s77.6-103.3,77.6-103.3l45.1-103.2c0,0,49.6-10.5,49.6-6.6
		c0,3.9,70.6,38.1,70.6,38.1l43.9,144.7c0,0,5.3,69.7,10.5,65.8c5.3-3.9,22.4-10.5,22.4-23.7s0-96,0-96v-92.1l-48.7-79.1l-97.3-28.7
		l-163.9,26.7L1457.5,330l115.1-35.7l182.8-46l-43.3-91.8l-133,24.7l-85.5-24.7l-53.9-31.2l-69.7-27c0,0,22-71.5,81.5-57.9
		c59.5,13.7,144.7,27.6,159.1,32.9s118.4,30.5,118.4,30.5h110.5l56.6,176.8"/>
</g>
<g id="camera-path" class="st7">
	<path class="st9" d="M1038.9,441.2c0,0-280.5,125.2-251.4,200.1c15.5,39.7,127.7-9,169.5-17.2c53.1-10.5,156.5-46.3,204.4-71.7
		c69.9-37.1,178-209.9,254.3-188.7c95.8,26.7,132.3,375.2,132.3,375.2"/>
</g>
<g id="points" class="st7">
	<circle id="Reykjavk" class="st10" cx="1010" cy="474.1" r="5.8"/>
	<circle id="Reykjanesta" class="st10" cx="795.7" cy="649.9" r="5.8"/>
	<circle id="Krsuvkurbjarg" class="st10" cx="958" cy="626.5" r="5.8"/>
	<circle id="Hverageri" class="st10" cx="1161.4" cy="552.4" r="5.8"/>
	<circle id="Gullfoss" class="st10" cx="1415.6" cy="363.7" r="5.8"/>
	<circle id="Eyjafjallajkull" class="st10" cx="1549.5" cy="741" r="5.8"/>
</g>
</svg>
